<?xml version="1.0" encoding="utf-8"?>
<!-- Generator: Adobe Illustrator 23.1.0, SVG Export Plug-In . SVG Version: 6.00 Build 0)  -->
<svg version="1.1" id="Layer_1" xmlns="http://www.w3.org/2000/svg" xmlns:xlink="http://www.w3.org/1999/xlink" x="0px" y="0px"
	 viewBox="0 0 226.7 52.8" style="enable-background:new 0 0 226.7 52.8;" xml:space="preserve">
<g>
	<g>
		<path d="M330.2,236.4c2.6,16.8,5.2,33.7,10.3,50c1.5,4.6,3.2,9.2,5.1,13.6c0.7,1.7,3.5,1.6,4.3,0c9-18.3,18-36.5,27-54.8
			c-1.3,0.2-2.6,0.3-3.9,0.5c10.7,13.3,21.4,26.5,32.4,39.5c3.1,3.7,6.3,7.4,9.5,11.1c1.2,1.4,3.8,0.7,4.2-1.1
			c3.7-20.4,6.4-41,8.1-61.6c0.1-1.3-1.2-2.5-2.5-2.5c-1.4,0-2.4,1.1-2.5,2.5c-1.6,20.2-4.3,40.4-7.9,60.3c1.4-0.4,2.8-0.7,4.2-1.1
			c-11.2-12.8-22-26-32.8-39.3c-3.1-3.8-6.1-7.6-9.2-11.4c-1-1.2-3.3-0.8-3.9,0.5c-9,18.3-18,36.5-27,54.8c1.4,0,2.9,0,4.3,0
			c-6.6-15.3-10-31.8-12.7-48.1c-0.8-4.7-1.5-9.5-2.2-14.2c-0.2-1.3-1.9-2.1-3.1-1.7C330.5,233.7,330,235.1,330.2,236.4L330.2,236.4
			z"/>
	</g>
</g>
<g>
	<g>
		<path d="M555.9,235.4c-8.8-2.7-18.7-0.7-26.2,4.6c-7.8,5.5-12.7,14.2-14,23.6c-1.3,9.3,0.3,19.5,6.2,27c3,3.8,7,6.3,11.7,7.3
			c5.2,1.1,10.8,1.5,16,0.7c5.6-0.9,10.3-3.8,13.7-8.2c3.1-4.1,4.9-9,6.1-14c0.8-3.1-4-4.5-4.8-1.3c-1.8,7.3-5.3,15.5-13.1,17.9
			c-4.4,1.4-9,1.1-13.5,0.6c-4.2-0.5-8.1-1.7-11.1-4.7c-5.5-5.6-7.2-14.3-6.7-21.9c0.5-8,4-15.9,10.1-21.2
			c6.5-5.7,15.9-8.1,24.2-5.6C557.7,241.2,559,236.4,555.9,235.4L555.9,235.4z"/>
	</g>
</g>
<g>
	<g>
		<path d="M587.6,266.7c-6,3.9-8.5,11.6-7.2,18.4c0.6,3.2,2.2,6.3,4.8,8.4c3.1,2.5,7,3.2,10.9,3.3c3.9,0.1,8.1,0.2,11.5-2
			c3.2-2,5.3-5.3,6.5-8.8c2.2-6.9,1.8-16.4-5.5-20c-3.5-1.7-7.4-2.2-11.3-2.2c-4.2,0-8.9,1.2-10.9,5.2c-1.4,2.9,2.9,5.4,4.3,2.5
			c1.2-2.5,4.1-2.8,6.6-2.7c2.5,0,5,0.2,7.4,1c2.1,0.7,4,1.9,4.8,4c1,2.6,0.8,6,0.3,8.7c-0.5,2.7-1.6,5.2-3.6,7.1
			c-2.2,2.1-5.1,2.1-8,2.2c-2.7,0-5.6,0.1-8.1-1.1c-2.1-1-3.6-2.8-4.3-5c-1.7-5-0.2-11.7,4.4-14.7
			C592.8,269.3,590.3,265,587.6,266.7L587.6,266.7z"/>
	</g>
</g>
<g>
	<g>
		<path d="M621.7,267.7c5.9,6.6,5.7,16.1,5.6,24.4c0,2.8,4.3,3.4,4.9,0.7c1.1-4.7,0.8-9.5,1.6-14.2c0.6-3.3,1.7-7.8,5.1-9.4
			c2.9-1.4,3.7,2.2,3.8,4.5c0.4,4.9,0.4,9.9,0.3,14.9c0,3.2,4.9,3.2,5,0c0.1-3.9,0.6-7.8,1.9-11.4c0.9-2.7,2.4-5.6,5.2-6.7
			c2.5-1,5.2-0.5,6.4,2c1.4,3,1.3,7,0.9,10.1c-0.5,4-1.9,7.8-4,11.2c-1.7,2.7,2.6,5.2,4.3,2.5c2.4-3.9,4-8.3,4.6-12.8
			c0.6-4.3,0.5-9.2-1.3-13.3c-1.8-4.1-6-5.8-10.3-5.2c-4.2,0.7-7.4,3.8-9.2,7.5c-2.4,4.9-3.1,10.6-3.3,15.9c1.7,0,3.3,0,5,0
			c0-4.6,0-9.2-0.3-13.8c-0.2-3.2-0.6-7-3.2-9.3c-3.2-2.8-7.7-1.7-10.6,1c-2.8,2.6-4.3,6.5-5,10.2c-0.9,4.8-0.5,9.8-1.6,14.6
			c1.6,0.2,3.3,0.4,4.9,0.7c0.1-9.8-0.1-20.2-7-27.9C623.1,261.8,619.6,265.4,621.7,267.7L621.7,267.7z"/>
	</g>
</g>
<g>
	<g>
		<path d="M677.3,279.6c6.1,0.3,15.9-1.6,17-9c0.5-3.5-1.5-6.5-4.8-7.6c-3-1-6.5-0.3-9.3,1c-6.1,3-8.5,11.4-8.1,17.7
			c0.4,6.7,4.7,12.8,11.6,13.6c3.9,0.5,7.7-0.9,11-2.8c3.3-1.9,6.8-4.4,7.2-8.4c0.1-1.3-1.2-2.5-2.5-2.5c-1.5,0-2.4,1.2-2.5,2.5
			c-0.1,0.7-0.9,1.3-1.3,1.7c-0.9,0.8-1.9,1.4-2.9,2c-2,1.2-4.2,2.3-6.6,2.5c-4.4,0.4-7.8-2.4-8.8-6.6c-0.6-2.4-0.4-4.9,0.1-7.2
			c0.5-2.1,1.2-4.4,2.6-6.1c1.3-1.6,3.2-2.6,5.2-2.8c1.2-0.1,3.6-0.2,4,1.3c0.6,2.1-1.9,3.6-3.4,4.3c-2.7,1.1-5.7,1.5-8.7,1.4
			C674.1,274.4,674.1,279.4,677.3,279.6L677.3,279.6z"/>
	</g>
</g>
<g>
	<g>
		<path d="M722.6,273.4c-0.7-5.5-0.1-11.1,1.7-16.4c0.8-2.3,1.8-4.5,3.2-6.5c0.6-0.9,1.3-1.7,2.1-2.4c0.4-0.4,0.8-0.7,1.3-1
			c0.2-0.1,0.4-0.3,0.7-0.4c0.8-0.5,0.1,0,0.1,0c-0.4-0.2-0.7-0.4-1.1-0.6c0.2,0.2-0.1,2.1-0.1,2.6c-0.2,1.3-0.6,2.5-1,3.7
			c-1,2.5-2.4,4.9-3.9,7.2c-2.9,4.5-6.1,9-7.2,14.4c-0.3,1.3,0.4,2.7,1.7,3.1c1.2,0.3,2.8-0.4,3.1-1.7c1-4.7,3.7-8.7,6.3-12.7
			c2.8-4.3,5.4-8.8,6-13.9c0.3-2.4,0.3-5.8-2.4-6.8c-2.5-0.9-4.9,1-6.6,2.5c-3.5,3.1-5.6,7.5-7,11.9c-1.8,5.5-2.4,11.5-1.7,17.3
			c0.2,1.3,1,2.5,2.5,2.5C721.3,275.9,722.7,274.7,722.6,273.4L722.6,273.4z"/>
	</g>
</g>
<g>
	<g>
		<path d="M718.6,290.7c0.1-0.1,0.2-0.1,0.2-0.2c-0.2,0.1-0.3,0.3-0.5,0.4c0.2-0.1,0.4-0.3,0.6-0.3c-0.2,0.1-0.4,0.2-0.6,0.3
			c0.3-0.1,0.5-0.2,0.8-0.2c-0.2,0-0.4,0.1-0.7,0.1c0.3,0,0.6,0,0.9,0c-0.2,0-0.4-0.1-0.7-0.1c0.3,0,0.6,0.1,0.8,0.2
			c-0.2-0.1-0.4-0.2-0.6-0.3c0.2,0.1,0.4,0.2,0.6,0.4c-0.2-0.1-0.3-0.3-0.5-0.4c0.2,0.1,0.3,0.3,0.4,0.4c-0.1-0.2-0.3-0.3-0.4-0.5
			c0.1,0.2,0.2,0.4,0.3,0.6c-0.1-0.2-0.2-0.4-0.3-0.6c0.1,0.2,0.2,0.5,0.2,0.7c0-0.2-0.1-0.4-0.1-0.7c0,0.3,0,0.5,0,0.8
			c0-0.2,0.1-0.4,0.1-0.7c0,0.3-0.1,0.6-0.2,0.8c0.1-0.2,0.2-0.4,0.3-0.6c-0.1,0.2-0.2,0.5-0.4,0.7c0.1-0.2,0.3-0.3,0.4-0.5
			c-0.1,0.2-0.3,0.3-0.5,0.5c0.2-0.1,0.3-0.3,0.5-0.4c-0.2,0.1-0.3,0.2-0.5,0.3c0.2-0.1,0.4-0.2,0.6-0.3c-0.2,0.1-0.4,0.1-0.6,0.2
			c0.2,0,0.4-0.1,0.7-0.1c-0.2,0-0.5,0-0.7,0c0.2,0,0.4,0.1,0.7,0.1c-0.3,0-0.5-0.1-0.8-0.2c0.2,0.1,0.4,0.2,0.6,0.3
			c-0.2-0.1-0.5-0.2-0.7-0.4c0.2,0.1,0.3,0.3,0.5,0.4C718.9,291.1,718.7,290.9,718.6,290.7c0.1,0.3,0.2,0.4,0.4,0.6
			C718.8,291.1,718.7,290.9,718.6,290.7c0.1,0.3,0.2,0.5,0.3,0.7c-0.1-0.2-0.1-0.4-0.2-0.6c0,0.2,0.1,0.4,0.1,0.7c0-0.2,0-0.5,0-0.7
			c0,0.2-0.1,0.4-0.1,0.7c0-0.3,0.1-0.5,0.2-0.7c-0.1,0.2-0.2,0.4-0.3,0.6c0.1-0.2,0.2-0.4,0.3-0.5c-0.1,0.2-0.3,0.3-0.4,0.5
			c0-0.1,0.1-0.1,0.1-0.2c0.4-0.5,0.7-1.1,0.7-1.8c0-0.6-0.3-1.3-0.7-1.8c-0.5-0.4-1.1-0.8-1.8-0.7c-0.6,0-1.3,0.2-1.8,0.7
			c-0.5,0.6-0.8,1.2-1.1,1.9c-0.1,0.2-0.1,0.3-0.1,0.5c-0.1,0.4-0.1,0.8-0.1,1.2c0,0.5,0.1,1.1,0.3,1.5c0.3,0.7,0.5,1.2,1,1.7
			c0.3,0.4,0.7,0.7,1.1,0.9c0.4,0.3,0.9,0.5,1.3,0.6c0.5,0.2,1,0.2,1.5,0.2c0.5,0,1-0.1,1.4-0.2c0.5-0.1,1-0.3,1.4-0.6
			c0.6-0.4,1-0.8,1.4-1.4c0.6-0.8,0.8-1.8,0.9-2.8c0.2-2-0.9-4-2.6-4.9c-2.1-1.1-4.8-0.8-6.5,0.9c-0.5,0.4-0.7,1.1-0.7,1.8
			c0,0.6,0.3,1.3,0.7,1.8c0.5,0.4,1.1,0.8,1.8,0.7C717.5,291.4,718.1,291.1,718.6,290.7L718.6,290.7z"/>
	</g>
</g>
<g>
	<g>
		<path d="M432.9,281.4c3.7,3.3,8.8,4.2,13.6,4.3c4.8,0.1,10.1-1.2,13.2-5c2.9-3.5,4-8.7,1.2-12.7c-2.6-3.7-7.1-5.2-11.4-5.4
			c-5.2-0.3-10.2,1.3-13.6,5.4c-3.3,3.9-5.9,8.9-6.4,14c-1,9.5,5.5,18.3,14.2,21.6c5,1.9,10.8,2,15.9,0.6c2.9-0.8,5.5-2.1,7.4-4.6
			c1.6-2.2,2.5-4.8,3.2-7.3c0.9-3.1-3.9-4.4-4.8-1.3c-1,3.5-2.1,6.8-5.9,8.1c-3.4,1.2-7.2,1.5-10.8,0.8c-7-1.4-12.8-6.5-14.1-13.7
			c-0.7-3.7,0.4-7.4,2.2-10.6c1.8-3.2,4-6.5,7.8-7.5c4.6-1.2,15.5,0.3,12.6,7.5c-1.5,3.7-5.5,5.1-9.2,5.2c-3.7,0.1-8.6-0.2-11.5-2.8
			C434.1,275.7,430.6,279.2,432.9,281.4L432.9,281.4z"/>
	</g>
</g>
<g>
	<g>
		<path d="M478.2,243.9c3.8,17.4,6.1,35.1,6.9,52.9c0.1,3.2,5.1,3.2,5,0c-0.8-18.3-3.1-36.4-7-54.3
			C482.4,239.4,477.5,240.8,478.2,243.9L478.2,243.9z"/>
	</g>
</g>
<g>
	<g>
		<g>
			<path d="M2.5,14.3c3.2-0.4,6.4-1.5,9.5-2.3c0.3-0.1,0.6-0.1,0.9-0.2c0.1,0,1-0.2,0.5-0.1c-0.7,0.1,0.6-0.1,0.6,0
				c-0.1-0.1-0.3-0.1-0.4-0.2c-0.4-0.3-0.5-0.3-0.2,0.1c0.1,0.5,0.6,1.2,0.8,1.7c0.8,2,1.6,4.4,0.8,6.5c-0.8,2-3.1,2.4-4.8,3.3
				c-2.2,1.2-4,3.2-4,5.8c0,2.7,2.2,5.2,3.7,7.2c1.6,2.1,3.3,4.4,5.4,6c3,2.5,6,0.7,8.9-1c2.8-1.6,5.6-3.3,8.3-5.1
				c2.7-1.8,0.2-6.1-2.5-4.3c-2.4,1.6-4.8,3.1-7.3,4.6c-1.1,0.6-2.2,1.3-3.3,1.9c-0.1,0.1-0.9,0.3-0.6,0.4c-0.4-0.1-1-0.9-1.3-1.2
				c-1.8-1.9-3.5-4-5-6.2c-0.4-0.5-1.5-1.8-1.3-2.5c0.1-0.6,1.1-1,1.5-1.3c2.2-1.2,4.5-1.9,6-4c1.3-1.8,1.8-4.3,1.6-6.5
				c-0.3-2.7-1.3-5.4-2.5-7.8c-1.2-2.3-3.4-2.6-5.7-2.2c-1.8,0.3-3.5,0.9-5.2,1.3C5.8,8.5,4.9,8.7,4,9C3.6,9,3.3,9.1,2.9,9.2
				c-0.2,0-1.3,0.2-0.4,0.1C1.2,9.5,0,10.3,0,11.8C0,13,1.2,14.5,2.5,14.3L2.5,14.3z"/>
		</g>
	</g>
	<g>
		<g>
			<path d="M30.3,24.2c3.4-1,6.9-1.9,10.3-2.9c1.3-0.4,2.2-1.8,1.7-3.1c-0.4-1.3-1.7-2.1-3.1-1.7c-3.4,1-6.9,1.9-10.3,2.9
				c-1.3,0.4-2.2,1.8-1.7,3.1C27.7,23.7,29,24.5,30.3,24.2L30.3,24.2z"/>
		</g>
	</g>
	<g>
		<g>
			<path d="M38.5,13c-0.5,4.9-0.7,9.8-0.4,14.7c0.1,1.3,1.1,2.6,2.5,2.5c1.3-0.1,2.6-1.1,2.5-2.5c-0.3-4.9-0.2-9.8,0.4-14.7
				c0.1-1.3-1.3-2.6-2.5-2.5C39.5,10.6,38.6,11.7,38.5,13L38.5,13z"/>
		</g>
	</g>
	<g>
		<g>
			<path d="M46,9.9c0,6.9,0,13.7,0,20.6c0,3.2,5,3.2,5,0c0-6.9,0-13.7,0-20.6C51,6.6,46,6.6,46,9.9L46,9.9z"/>
		</g>
	</g>
	<g>
		<g>
			<path d="M31.8,43.5c2,1.7,3,4.3,4.8,6.3c2.3,2.6,5.2,3.3,8.5,2.8c2.2-0.4,4.3-1.4,6.3-2.4c1.9-0.9,3.8-2,5.6-3
				c2.8-1.6,0.3-5.9-2.5-4.3c-3.2,1.8-6.5,3.9-10,4.7c-2,0.5-3.4,0-4.7-1.6c-1.6-2-2.5-4.4-4.5-6c-1-0.9-2.5-1-3.5,0
				C30.9,40.9,30.8,42.6,31.8,43.5L31.8,43.5z"/>
		</g>
	</g>
	<g>
		<g>
			<path d="M61.4,19.9c2.9,0,5.7,0.1,8.6,0.1c1.3,0,2.6-1.2,2.5-2.5c-0.1-1.4-1.1-2.5-2.5-2.5c-2.9,0-5.7-0.1-8.6-0.1
				c-1.3,0-2.6,1.2-2.5,2.5C58.9,18.8,60,19.9,61.4,19.9L61.4,19.9z"/>
		</g>
	</g>
	<g>
		<g>
			<path d="M57.8,16.5c-1.2,2.7-1.6,5.5-1.3,8.4c0.3,3,0.8,5.8,2.4,8.5c0.7,1.1,1.4,2.4,2.4,3.3c1.4,1.3,3.1,1.1,4.8,0.7
				c2.2-0.5,4.4-1,6.7-1.4c1.3-0.3,2.1-1.8,1.7-3.1c-0.4-1.4-1.7-2-3.1-1.7c-1.9,0.4-3.7,0.8-5.6,1.2c-0.4,0.1-0.9,0.2-1.3,0.3
				c-0.1,0-0.6,0.1-0.6,0.1c0.1-0.2,0.6,0.3,0.7,0.2c0,0,0,0.1,0.1,0.1c-0.1-0.1-0.2-0.2-0.3-0.4c-0.1-0.2-0.3-0.4-0.4-0.6
				c-0.3-0.5-0.7-1-1-1.5c-1-1.7-1.4-3.8-1.5-5.7c-0.2-2.2-0.2-4,0.6-5.9c0.5-1.2,0.4-2.7-0.9-3.4C60.2,15,58.4,15.2,57.8,16.5
				L57.8,16.5z"/>
		</g>
	</g>
	<g>
		<g>
			<path d="M74.1,27.9c3.9-0.2,7.7-0.3,11.6-0.5c1.3-0.1,2.6-1.1,2.5-2.5c-0.1-1.3-1.1-2.6-2.5-2.5c-3.9,0.2-7.7,0.3-11.6,0.5
				c-1.3,0.1-2.6,1.1-2.5,2.5C71.7,26.7,72.7,27.9,74.1,27.9L74.1,27.9z"/>
		</g>
	</g>
	<g>
		<g>
			<path d="M85.4,16.2c0,6.1,0.4,12.2,1.1,18.2c0.2,1.3,1,2.5,2.5,2.5c1.2,0,2.7-1.1,2.5-2.5c-0.7-6-1.1-12.1-1.1-18.2
				c0-1.4-1.1-2.5-2.5-2.5C86.6,13.7,85.4,14.8,85.4,16.2L85.4,16.2z"/>
		</g>
	</g>
	<g>
		<g>
			<path d="M96.1,8.7c1.7,0.1,3.4,0.2,5.1,0.3c0.4,0,0.8,0,1.2,0.1c0.3,0,0.9,0.2,1.2,0.1c0.1,0,0.1,0,0.2,0c-0.4-0.3-0.8-0.6-1.2-1
				c-0.1,0,0.2-0.4,0,0.1c-0.2,0.3-0.1,1-0.1,1.4c-0.1,0.8-0.1,1.7-0.2,2.5c-0.1,1.1,0.3-0.4,0.4-0.1c0-0.1-0.7,0.1-0.9,0.2
				c-1.7,0.4-3.5,0.8-5.2,1.3c-1.8,0.4-3.4,1.1-3.9,3.1c-0.4,1.8-0.2,3.7,0.2,5.5c0.4,1.7,1,3.3,1.7,4.9c0.6,1.5,1.7,2.7,3.3,3.2
				c1.7,0.5,3.7,0,5.5-0.2c2-0.2,4-0.4,5.9-0.6c1.3-0.1,2.5-1.1,2.5-2.5c0-1.3-1.1-2.6-2.5-2.5c-1.7,0.2-3.4,0.3-5.1,0.5
				c-0.8,0.1-1.6,0.2-2.5,0.2c-0.8,0.1-1.6,0.3-2.4,0.2c0,0,0.1,0.1,0.1,0.1c0.1,0-0.2-0.3-0.2-0.5c-0.3-0.6-0.5-1.3-0.8-1.9
				c-0.5-1.4-0.9-2.9-0.9-4.5c0-0.1,0.1-0.8,0.1-0.8c0.2,0.1-1.2,0.6-0.6,0.8c0.1,0,0.4-0.1,0.6-0.1c0.9-0.2,1.8-0.4,2.7-0.6
				c1.6-0.4,3.6-0.6,5.1-1.5c1.8-1.1,1.8-3,2-4.9c0.1-1.6,0.5-3.5-0.2-5c-0.9-2.2-3.2-2.1-5.3-2.3c-2-0.1-4-0.2-5.9-0.4
				c-1.3-0.1-2.5,1.2-2.5,2.5C93.6,7.6,94.7,8.6,96.1,8.7L96.1,8.7z"/>
		</g>
	</g>
	<g>
		<g>
			<path d="M117.1,5.3c-0.3,3.4-0.5,6.7-0.3,10.1c0.3,3.5,1,6.9,2.1,10.2c0.4,1.3,1.7,2.1,3.1,1.7c1.3-0.3,2.2-1.8,1.7-3.1
				c-1-3-1.8-6.1-2-9.1c-0.2-3.3,0-6.5,0.3-9.8c0.1-1.3-1.2-2.5-2.5-2.5C118.1,2.8,117.2,3.9,117.1,5.3L117.1,5.3z"/>
		</g>
	</g>
	<g>
		<g>
			<path d="M117.1,29.2c-3,0.6-6.1,2-7.3,5c-1.4,3.4-0.3,7.5,2.9,9.4c2.8,1.7,6.4,1.5,9.2,0c2.9-1.5,5-4.7,4.6-8
				c-0.2-2.1-1.2-3.9-3-5.2c-1.6-1.2-3.7-1.3-5.7-1.3c-1.3,0-2.6,1.2-2.5,2.5c0.1,1.4,1.1,2.5,2.5,2.5c0.6,0,1.3,0,1.9,0.1
				c-0.1,0-0.6-0.1-0.1,0c0.1,0,0.2,0,0.4,0.1c0.1,0,0.5,0.1,0.5,0.2c-0.1,0-0.2-0.1-0.3-0.1c0.1,0.1,0.2,0.1,0.3,0.2
				c0.1,0.1,0.2,0.1,0.3,0.2c0.4,0.3-0.3-0.3-0.1-0.1c0.1,0.1,0.2,0.2,0.3,0.3c0.3,0.3-0.1-0.1-0.1-0.1c0,0,0.4,0.6,0.4,0.7
				c0.2,0.4-0.1-0.1-0.1-0.2c0,0,0.1,0.4,0.1,0.4c0,0.1,0.1,0.4,0.1,0.5c0,0,0-0.6,0-0.2c0,0.3,0,0.5,0,0.8c0,0.3-0.1-0.1,0-0.2
				c0,0-0.1,0.3-0.1,0.4c0,0.1-0.1,0.3-0.1,0.4c-0.1,0.5,0.2-0.5,0,0c-0.1,0.2-0.3,0.5-0.4,0.7c-0.1,0.2-0.3,0.2,0.1-0.1
				c-0.1,0.1-0.1,0.2-0.2,0.3c-0.2,0.2-0.4,0.4-0.6,0.6c0,0-0.2,0.2-0.3,0.2c0.3-0.2,0.3-0.3,0.1-0.1c-0.1,0-0.1,0.1-0.2,0.1
				c-0.2,0.1-0.4,0.3-0.7,0.4c-0.1,0-0.5,0.3-0.2,0.1c0.3-0.2-0.1,0-0.2,0.1c-0.2,0.1-0.4,0.1-0.7,0.2c-0.1,0-0.3,0.1-0.4,0.1
				c-0.5,0.1,0.6,0,0,0c-0.3,0-0.5,0-0.8,0c-0.1,0-0.2,0-0.3,0c-0.1,0-0.6-0.1-0.1,0c0.4,0.1-0.3-0.1-0.4-0.1
				c-0.1,0-0.2-0.1-0.4-0.1c-0.1,0-0.6-0.2-0.2-0.1c0.4,0.1,0,0-0.1-0.1c-0.1,0-0.2-0.1-0.3-0.2c-0.1,0-0.3-0.3-0.4-0.3
				c0.1,0,0.5,0.4,0.2,0.1c-0.1-0.1-0.1-0.1-0.2-0.2c0,0-0.1-0.1-0.1-0.1c-0.2-0.2-0.1-0.1,0.1,0.2c0,0-0.4-0.7-0.4-0.7
				c0.2,0.1,0.2,0.4,0,0c0-0.1-0.1-0.3-0.1-0.4c0,0-0.1-0.3-0.1-0.3c0,0,0.1,0.6,0,0.1c0-0.3,0-0.5,0-0.8c0-0.6-0.1,0.4,0,0.1
				c0.1-0.2,0.1-0.4,0.1-0.6c0-0.1,0.1-0.3,0.1-0.3c-0.1,0.3-0.2,0.4,0,0.1c0-0.1,0.1-0.1,0.1-0.2c0.1-0.1,0.2-0.2,0.2-0.3
				c0.1-0.2,0-0.1-0.2,0.2c0.1-0.1,0.1-0.1,0.2-0.2c0.1-0.1,0.1-0.1,0.2-0.2c0.1-0.1,0.1-0.1,0.2-0.1c0.1-0.1,0.1-0.1-0.2,0.2
				c0.1,0,0.6-0.4,0.7-0.5c0.3-0.1,0.5-0.3,0.8-0.4c-0.6,0.3-0.2,0.1-0.1,0c0.2-0.1,0.3-0.1,0.5-0.2c0.6-0.2,1.1-0.3,1.7-0.5
				c1.3-0.3,2.1-1.8,1.7-3.1C119.7,29.6,118.4,28.9,117.1,29.2L117.1,29.2z"/>
		</g>
	</g>
	<g>
		<g>
			<path d="M146.8,0.6c-1.7-0.5-3.3,0.8-4.3,2c-1.3,1.5-1.6,3.4-1.8,5.4c-0.2,1.7,0.1,3.6,1,5c1.2,1.8,3.1,2.7,5.1,3.3
				c0.9,0.3,1.8,0.5,2.7,0.7c1.2,0.2,2.4,0.5,3.6,0.1c2-0.6,3.4-2.3,4.2-4.2c1.4-3.3,0.8-7.1-1.6-9.7c-1.2-1.4-2.9-2.4-4.7-2.8
				c-2-0.6-4.1-0.4-6,0.5c-1.2,0.6-1.6,2.4-0.9,3.4c0.8,1.2,2.1,1.5,3.4,0.9c0.5-0.2-0.5,0.1,0,0c0.1,0,0.2-0.1,0.3-0.1
				c0.1,0,0.3-0.1,0.4-0.1c0.3-0.1-0.7,0-0.1,0c0.3,0,0.5,0,0.8,0c0.1,0,0.2,0,0.3,0c-0.4-0.1-0.5-0.1-0.2,0c0.1,0,0.1,0,0.2,0
				c0.3,0.1,0.5,0.1,0.8,0.2c0.1,0,0.3,0.1,0.4,0.1c0.3,0.1-0.6-0.3-0.1,0c0.2,0.1,0.4,0.2,0.7,0.3c0.1,0.1,0.2,0.1,0.3,0.2
				c0.1,0,0.1,0.1,0.2,0.1c0.2,0.1,0.1,0.1-0.2-0.1c0.1,0,0.5,0.5,0.6,0.5c0.1,0.1,0.2,0.2,0.2,0.2c0,0,0.1,0.1,0.1,0.1
				c0.2,0.2,0.1,0.2-0.1-0.1c0.1,0,0.4,0.6,0.4,0.6c0.1,0.1,0.1,0.2,0.2,0.4c0.3,0.5-0.2-0.5,0,0c0.1,0.3,0.2,0.5,0.2,0.8
				c0,0,0.1,0.3,0.1,0.3c0-0.1,0-0.2,0-0.3c0,0.1,0,0.2,0,0.3c0,0.2,0,0.5,0,0.7c0,0.1,0,0.3,0,0.4c0,0.6,0.1-0.6,0,0
				c-0.1,0.3-0.1,0.5-0.2,0.8c0,0.1-0.1,0.2-0.1,0.3c-0.2,0.5,0.3-0.5,0,0c-0.1,0.2-0.2,0.4-0.4,0.6c0,0-0.2,0.3-0.2,0.3
				c0.2-0.3,0.3-0.3,0.1-0.2c-0.1,0.1-0.1,0.1-0.2,0.2c-0.1,0.1-0.2,0.2-0.3,0.3c-0.2,0.2,0.5-0.2,0,0c0.2-0.1,0.4,0,0.1,0
				c0.5,0,0.1,0-0.1,0c-0.1,0-0.6-0.1-0.1,0c-0.1,0-0.3,0-0.4-0.1c-0.4-0.1-0.9-0.2-1.3-0.3c-0.7-0.2-1.3-0.3-2-0.6
				c-0.3-0.1-0.6-0.2-0.9-0.3c0.5,0.3,0,0-0.1-0.1c-0.2-0.1-0.3-0.2-0.5-0.3c-0.1,0-0.2-0.1-0.3-0.2c0.4,0.5,0,0-0.1-0.1
				c-0.3-0.3,0.1,0.1,0.1,0.1c0,0-0.2-0.3-0.2-0.4c-0.2-0.3,0-0.3,0,0.1c0-0.1-0.1-0.2-0.1-0.3c0-0.2-0.1-0.3-0.1-0.5
				c-0.1-0.5,0,0.5,0,0c0-0.3,0-0.6,0-1c0-0.1,0-0.3,0-0.4c0-0.2,0.2-0.6,0,0c0.1-0.2,0.3-1.9,0.4-1.9c-0.1,0-0.2,0.4,0,0
				c0.1-0.3-0.4,0.4-0.1,0.1c0.1-0.2,0.3-0.3,0.4-0.5c0.2-0.2,0.4-0.4,0.6-0.6c-0.4,0.4-0.4,0.3-0.2,0.2c0.2-0.1,0.1-0.1-0.3,0.1
				c-0.3,0.1-0.7,0.1-1,0c1.2,0.4,2.8-0.5,3.1-1.7C148.8,2.3,148.1,1,146.8,0.6L146.8,0.6z"/>
		</g>
	</g>
	<g>
		<g>
			<path d="M148.3,20.9c-0.1,2.2,0.5,4.3,1.4,6.3c0.3,0.5,0.9,1,1.5,1.1c0.6,0.2,1.4,0.1,1.9-0.3c0.5-0.3,1-0.9,1.1-1.5
				c0-0.2,0.1-0.4,0.1-0.7c0-0.5-0.1-0.9-0.3-1.3c-0.1-0.1-0.1-0.3-0.2-0.4c0.1,0.2,0.2,0.4,0.3,0.6c-0.4-0.9-0.6-1.8-0.8-2.8
				c0,0.2,0.1,0.4,0.1,0.7c-0.1-0.6-0.1-1.2-0.1-1.8c0-0.6-0.3-1.3-0.7-1.8c-0.4-0.4-1.1-0.8-1.8-0.7c-0.6,0-1.3,0.2-1.8,0.7
				C148.5,19.6,148.3,20.2,148.3,20.9L148.3,20.9z"/>
		</g>
	</g>
	<g>
		<g>
			<path d="M144,30c5.3,0.7,10.6,0.5,15.7-0.9c1.3-0.3,2.2-1.8,1.7-3.1c-0.4-1.3-1.7-2.1-3.1-1.7c-1.1,0.3-2.3,0.6-3.4,0.7
				c-0.3,0-0.5,0.1-0.8,0.1c0.4-0.1-0.4,0.1-0.5,0.1c-0.6,0.1-1.2,0.1-1.7,0.1c-1.2,0.1-2.3,0.1-3.5,0c-0.5,0-1.1-0.1-1.6-0.1
				c-0.3,0-0.5,0-0.8-0.1c-0.2,0-0.4,0-0.5-0.1c-0.3,0-0.4,0-0.1,0c-1.3-0.2-2.7,0.3-3.1,1.7C141.9,28.1,142.6,29.8,144,30L144,30z"
				/>
		</g>
	</g>
	<g>
		<g>
			<path d="M167.8,5.2c-0.1,7.1,0.5,14.1,1.7,21.1c0.2,1.3,1.9,2.1,3.1,1.7c1.4-0.4,2-1.7,1.7-3.1c-1.1-6.5-1.6-13.1-1.5-19.7
				C172.8,2,167.8,2,167.8,5.2L167.8,5.2z"/>
		</g>
	</g>
	<g>
		<g>
			<path d="M172.8,19c0,0,0.1,0,0.1,0c-0.2,0-0.4,0.1-0.7,0.1c1.4-0.2,2.8-0.2,4.2,0c-0.2,0-0.4-0.1-0.7-0.1
				c0.4,0.1,0.7,0.1,1.1,0.2c0.7,0.1,1.3,0.1,1.9-0.3c0.5-0.3,1-0.9,1.1-1.5c0.1-0.6,0.1-1.4-0.3-1.9c-0.3-0.5-0.9-1-1.5-1.1
				c-1.1-0.2-2.2-0.4-3.4-0.4c-1.1,0-2.2,0.1-3.4,0.2c-0.6,0.1-1.2,0.7-1.5,1.1c-0.3,0.5-0.4,1.3-0.3,1.9c0.2,0.6,0.6,1.2,1.1,1.5
				c0.2,0.1,0.4,0.2,0.6,0.3C171.9,19.1,172.4,19.1,172.8,19L172.8,19z"/>
		</g>
	</g>
	<g>
		<g>
			<path d="M154,35.1c1.1,2.5,2.2,4.9,3.5,7.3c0.6,1.1,1.1,2.2,2,3.1c1.1,1.2,2.7,1.5,4.3,1.1c2.3-0.6,4.7-1.6,6.9-2.4
				c2.3-0.9,4.6-1.9,6.6-3.3c1.1-0.7,1.6-2.2,0.9-3.4c-0.7-1.1-2.3-1.6-3.4-0.9c-3.4,2.2-7.3,3.5-11.1,4.8c-0.2,0.1-1.3,0.6-1.4,0.4
				c0.1,0,0.3,0,0.4,0c0.1,0.1,0.3,0.2,0.4,0.2c-0.2,0-0.2-0.2-0.2-0.2c-0.6-0.9-1.1-2-1.6-2.9c-1.1-2.1-2.1-4.2-3-6.3
				c-0.5-1.2-2.4-1.5-3.4-0.9C153.7,32.4,153.5,33.9,154,35.1L154,35.1z"/>
		</g>
	</g>
	<g>
		<g>
			<path d="M187.5,6.1c1.8,0.1,3.6,0.2,5.4,0.4c0.8,0.1,1.5,0.2,2.3,0.3c0.1,0,0.3,0.1,0.4,0.1c0,0,0.1,0,0.1,0
				c-0.3-0.1-0.4-0.2-0.5-0.4c0-0.1-0.1-0.1-0.1-0.2c0,0.1,0.1,0.2,0.1,0.3c0.1,0.2,0,0.5,0,0.2c0,0.2-0.1,1,0,0.5
				c0,0.2-0.1,0.3-0.1,0.5c0,0.1-0.2,0.4,0,0.1c-0.1,0.1-0.4,0.7-0.3,0.5c0.2-0.2-0.1,0.1-0.2,0.2c-0.1,0.1-0.4,0.3-0.2,0.1
				c-0.1,0.1-0.3,0.2-0.4,0.3c-0.1,0-0.4,0.2-0.1,0c-0.3,0.1-0.6,0.2-0.9,0.2c-0.8,0.2-0.9,0.2-1.8,0.3c-1.7,0.2-3.4,0.4-4.9,1.2
				c-1.7,1-2.5,2.9-2.4,4.9c0.2,3.1,1.5,6.5,4.7,7.5c1.9,0.6,4.2,0,6.2-0.3c2-0.4,3.9-0.9,5.8-1.5c1.3-0.4,2.1-1.7,1.7-3.1
				c-0.3-1.2-1.8-2.2-3.1-1.7c-1.6,0.5-3.3,1-5,1.4c-1.3,0.3-3,0.8-4.2,0.5c-0.4-0.1,0.3,0.2,0,0c-0.1,0-0.4-0.3-0.2-0.1
				c0.2,0.2-0.4-0.6-0.1-0.1c-0.2-0.2-0.3-0.5-0.5-0.8c0,0.1,0.1,0.4,0-0.1c-0.1-0.2-0.1-0.4-0.2-0.6c-0.1-0.3-0.1-0.5-0.2-0.8
				c0.1,0.5,0-0.4,0-0.6c0-0.2,0-0.4,0-0.5c0,0.1,0,0.1-0.1,0.3c0-0.1,0.2-0.2,0.1-0.2c-0.2,0.1,0,0,0.1,0c-0.3,0.1,0.1,0,0.2,0
				c0.2,0,0.3-0.1,0.5-0.1c0.3-0.1,0.7-0.1,1-0.2c-0.1,0-0.3,0,0,0c0.2,0,0.4,0,0.5-0.1c0.4,0,0.8-0.1,1.2-0.1
				c1.6-0.2,3.2-0.5,4.5-1.4c2.7-1.9,4.1-5.8,2.5-8.8c-1.2-2.2-3.7-2.3-6-2.6c-2-0.3-4.1-0.4-6.1-0.5c-1.4-0.1-2.5,1.2-2.5,2.5
				C185,5,186.2,6.1,187.5,6.1L187.5,6.1z"/>
		</g>
	</g>
	<g>
		<g>
			<path d="M187.7,28.4c-0.1,3.2,0.2,6.4,0.8,9.6c0.2,1.3,1.9,2.1,3.1,1.7c1.4-0.4,2-1.7,1.7-3.1c-0.1-0.7-0.2-1.4-0.3-2
				c0,0.2,0.1,0.4,0.1,0.7c-0.3-2.3-0.4-4.6-0.3-6.9c0-1.3-1.2-2.6-2.5-2.5C188.8,26,187.7,27,187.7,28.4L187.7,28.4z"/>
		</g>
	</g>
	<g>
		<g>
			<path d="M197.4,27.1c0,1.9-0.1,3.8-0.3,5.6c-0.1,0.9-0.2,1.8-0.3,2.7c0,0.4-0.1,0.9-0.2,1.3c0,0.1,0,0.3-0.1,0.4
				c0,0.3,0,0.3,0,0.1c0-0.2,0-0.1,0,0.1c0,0.1,0,0.3-0.1,0.4c-0.1,0.7-0.1,1.3,0.3,1.9c0.3,0.5,0.9,1,1.5,1.1
				c1.2,0.3,2.9-0.4,3.1-1.7c0.6-4,0.9-8.1,1-12.1c0-1.3-1.2-2.6-2.5-2.5C198.6,24.7,197.5,25.7,197.4,27.1L197.4,27.1z"/>
		</g>
	</g>
	<g>
		<g>
			<path d="M184.6,40.7c3.7,0.7,7.5,1.4,11.3,1.4c3.7,0,7.3-0.8,10.8-2c1.3-0.4,2.1-1.7,1.7-3.1c-0.3-1.2-1.8-2.2-3.1-1.7
				c-3.1,1.1-6.2,1.8-9.5,1.8c-3.4,0-6.7-0.6-10-1.3c-1.3-0.2-2.7,0.4-3.1,1.7C182.5,38.8,183.3,40.4,184.6,40.7L184.6,40.7z"/>
		</g>
	</g>
	<g>
		<g>
			<path d="M221.8,2.1c-1.3,4.7-2.3,9.4-3.1,14.2c-0.2,1.3,0.3,2.8,1.7,3.1c1.2,0.3,2.8-0.4,3.1-1.7c0.8-4.8,1.8-9.5,3.1-14.2
				c0.3-1.3-0.4-2.8-1.7-3.1C223.6,0,222.2,0.7,221.8,2.1L221.8,2.1z"/>
		</g>
	</g>
	<g>
		<g>
			<path d="M217.5,30.9c-0.2,0.4-0.3,0.8-0.5,1.2c1-0.6,2.1-1.2,3.1-1.7c0,0-0.1,0-0.1,0c0.2,0.1,0.4,0.2,0.6,0.3
				c-0.1,0-0.1-0.1-0.2-0.1c0.2,0.1,0.3,0.3,0.5,0.4c-0.1-0.1-0.1-0.1-0.2-0.2c0.1,0.2,0.3,0.3,0.4,0.5c-0.1-0.1-0.1-0.1-0.1-0.2
				c0.1,0.2,0.2,0.4,0.3,0.6c0-0.1-0.1-0.2-0.1-0.3c0,0.2,0.1,0.4,0.1,0.7c0-0.1,0-0.2,0-0.3c0,0.2-0.1,0.4-0.1,0.7
				c0-0.1,0-0.2,0.1-0.2c-0.1,0.2-0.2,0.4-0.3,0.6c0-0.1,0.1-0.1,0.1-0.2c-0.1,0.2-0.3,0.3-0.4,0.5c0-0.1,0.1-0.1,0.1-0.1
				c-0.2,0.1-0.3,0.3-0.5,0.4c0.1,0,0.1-0.1,0.2-0.1c-0.2,0.1-0.4,0.2-0.6,0.3c0.1,0,0.2-0.1,0.3-0.1c-0.2,0-0.4,0.1-0.7,0.1
				c0.1,0,0.2,0,0.3,0c-0.2,0-0.4-0.1-0.7-0.1c0.1,0,0.2,0,0.3,0.1c-0.2-0.1-0.4-0.2-0.6-0.3c0.1,0,0.2,0.1,0.2,0.1
				c-0.2-0.1-0.3-0.3-0.5-0.4c0.1,0.1,0.1,0.1,0.2,0.2c-0.1-0.2-0.3-0.3-0.4-0.5c0,0.1,0.1,0.1,0.1,0.2c-0.1-0.2-0.2-0.4-0.3-0.6
				c0,0.1,0,0.1,0.1,0.2c0-0.2-0.1-0.4-0.1-0.7c0,0.1,0,0.1,0,0.2c0-0.2,0.1-0.4,0.1-0.7c0,0.1,0,0.2-0.1,0.3
				c0.1-0.2,0.2-0.4,0.3-0.6c0,0.1-0.1,0.2-0.1,0.2c0.1-0.2,0.3-0.3,0.4-0.5c-0.1,0.1-0.1,0.1-0.2,0.2c0.2-0.1,0.3-0.3,0.5-0.4
				c-0.1,0.1-0.2,0.1-0.2,0.1c0.2-0.1,0.4-0.2,0.6-0.3c-0.1,0-0.1,0.1-0.2,0.1c0.2,0,0.4-0.1,0.7-0.1c-0.1,0-0.1,0-0.2,0
				c0.2,0,0.4,0.1,0.7,0.1c0,0,0,0,0,0c-0.3-0.1-0.7-0.1-1,0c-0.3,0-0.6,0.1-0.9,0.3c-0.3,0.2-0.5,0.4-0.7,0.6
				c-0.2,0.2-0.4,0.5-0.4,0.9c0,0.2-0.1,0.4-0.1,0.7c0,0.5,0.1,0.9,0.3,1.3c0.1,0.2,0.3,0.3,0.4,0.5c0.3,0.3,0.7,0.5,1.1,0.6
				c0.2,0,0.5,0.1,0.7,0.1c0,0,0.1,0,0.1,0c0.3,0,0.5-0.1,0.8-0.1c0.1,0,0.1,0,0.2-0.1c0.2-0.1,0.4-0.2,0.6-0.3c0,0,0.1,0,0.1,0
				c0,0,0,0,0.1,0c0.2-0.1,0.4-0.3,0.5-0.4c0,0,0.1-0.1,0.1-0.1c0,0,0,0,0.1-0.1c0.1-0.2,0.3-0.4,0.4-0.6c0-0.1,0.1-0.1,0.1-0.2
				c0.1-0.2,0.2-0.4,0.3-0.7c0,0,0,0,0-0.1c0-0.1,0-0.1,0-0.2c0-0.2,0.1-0.5,0.1-0.7c0,0,0-0.1,0-0.1c0-0.3,0-0.6-0.1-0.8
				c0-0.1-0.1-0.3-0.2-0.4c-0.1-0.1-0.1-0.3-0.2-0.4c-0.1-0.1-0.2-0.2-0.2-0.3c-0.1-0.1-0.2-0.2-0.2-0.3c0,0-0.1-0.1-0.1-0.1
				c-0.2-0.1-0.4-0.3-0.6-0.4c0,0,0,0-0.1,0c0,0-0.1-0.1-0.1-0.1c-0.2-0.1-0.6-0.3-0.9-0.3c-0.2,0-0.5-0.1-0.7-0.1c0,0,0,0-0.1,0
				c-0.1,0-0.1,0-0.2,0c-0.2,0-0.5,0.1-0.7,0.1c0,0,0,0-0.1,0c-0.1,0-0.1,0-0.2,0c-0.2,0.1-0.5,0.2-0.7,0.3c0,0,0,0-0.1,0
				c-0.2,0.1-0.4,0.3-0.6,0.4c0,0-0.1,0.1-0.1,0.1c-0.2,0.2-0.3,0.4-0.5,0.6c-0.1,0.2-0.3,0.6-0.3,0.7c0,0,0,0.1,0,0.1
				c-0.1,0.3-0.1,0.5-0.1,0.8c0,0.1,0,0.1,0,0.2c0,0.3,0.1,0.5,0.1,0.8c0,0.1,0,0.1,0,0.2c0.1,0.3,0.2,0.5,0.3,0.7
				c0,0.1,0.1,0.1,0.1,0.1c0.1,0.2,0.3,0.4,0.4,0.6c0,0,0,0,0.1,0.1c0,0,0,0,0.1,0.1c0.2,0.2,0.4,0.3,0.6,0.4c0,0,0.1,0.1,0.1,0.1
				c0.2,0.1,0.5,0.2,0.7,0.3c0.3,0.1,0.7,0.1,1,0c0.3,0,0.6-0.1,0.9-0.3c0.2-0.1,0.3-0.3,0.5-0.4c0.3-0.3,0.5-0.7,0.6-1.1
				c0.2-0.4,0.3-0.8,0.5-1.2c0.1-0.3,0.1-0.7,0-1c0-0.3-0.1-0.6-0.3-0.9c-0.2-0.3-0.4-0.5-0.6-0.7c-0.2-0.2-0.5-0.4-0.9-0.4
				c-0.2,0-0.4-0.1-0.7-0.1c-0.5,0-0.9,0.1-1.3,0.3c-0.2,0.1-0.3,0.3-0.5,0.4C217.8,30.1,217.6,30.5,217.5,30.9L217.5,30.9z"/>
		</g>
	</g>
</g>
<g>
	<g>
		<path d="M372.5,132.2c7.2,3.9,16.7,1.3,20.3-6.2c0.8-1.7,1.6-3.7,1.5-5.5c-0.1-2.5-2.1-3.7-4.1-4.5c-3.3-1.3-7.1-1-10.4,0.3
			c-7.1,2.9-11.3,10.5-10.4,18.1c0.9,7.5,6.9,13.9,14.4,15.2c8.6,1.4,16.6-3.7,20.8-11c1.6-2.8-2.7-5.3-4.3-2.5
			c-2.5,4.4-7.1,8.3-12.3,8.7c-5.2,0.4-10.4-2.5-12.6-7.4c-2.1-4.7-1-10.7,2.7-14.2c1.7-1.6,3.9-2.6,6.1-2.9
			c1.2-0.2,2.3-0.1,3.5,0.2c0.6,0.1,1.1,0.5,1.7,0.6c0,0,0.1,0.1,0.1,0.1c0.4,0.2,0.3,0-0.2-0.6c0.1,0-0.2,1.2-0.2,1.2
			c-1.5,6.2-8.5,9.3-14.1,6.2C372.2,126.4,369.7,130.7,372.5,132.2L372.5,132.2z"/>
	</g>
</g>
<g>
	<g>
		<path d="M410.2,95.1c-0.4,17.6-0.5,35.3-0.3,52.9c0,3.2,5,3.2,5,0c-0.3-17.6-0.2-35.3,0.3-52.9C415.2,91.9,410.2,91.9,410.2,95.1
			L410.2,95.1z"/>
	</g>
</g>
<g>
	<g>
		<path d="M432.9,95.4c-2.4,17.6-3.2,35.3-2.3,53.1c0.2,3.2,5.2,3.2,5,0c-0.9-17.3-0.2-34.6,2.2-51.7c0.2-1.3-0.3-2.7-1.7-3.1
			C434.8,93.3,433.1,94,432.9,95.4L432.9,95.4z"/>
	</g>
</g>
<g>
	<g>
		<path d="M450.6,121.9c-3.7-0.4-5.9,3.2-7.1,6.2c-1.3,3.2-1.7,6.7-1,10.1c0.6,3,2.2,5.9,4.6,7.9c2.6,2.1,5.8,3.1,9,3.7
			c3.5,0.6,7.1,0.8,10.4-0.9c2.7-1.4,4.5-3.9,5.6-6.6c2.3-5.5,2.6-13.1-1.4-17.9c-5-5.9-14.4-6.2-20.9-2.8c-2.9,1.5-0.3,5.8,2.5,4.3
			c4.1-2.1,9.4-2.1,13.3,0.5c3.8,2.6,3.6,7.8,2.6,11.8c-0.4,1.8-1.1,3.7-2.5,5.1c-1.5,1.6-3.6,2-5.8,1.9c-4.4-0.2-9.5-1.5-11.7-5.8
			c-1.1-2.2-1.3-4.8-0.8-7.2c0.3-1.4,1.3-5.6,3.2-5.4c1.3,0.1,2.5-1.2,2.5-2.5C453.1,123,451.9,122.1,450.6,121.9L450.6,121.9z"/>
	</g>
</g>
<g>
	<g>
		<g>
			<path d="M-107.2,329.2c-0.4,6.5-0.2,13,0.4,19.5c0.1,1.3,1.1,2.5,2.5,2.5c1.3,0,2.6-1.1,2.5-2.5c-0.6-6.5-0.8-13-0.4-19.5
				c0.1-1.3-1.2-2.5-2.5-2.5C-106.1,326.7-107.1,327.9-107.2,329.2L-107.2,329.2z"/>
		</g>
	</g>
	<g>
		<g>
			<path d="M-116.1,355.8c6.2,0,12.3,1,18.1,3.2c0.7,0.3,1.9,0.6,2.3,1.4c0.3,0.8-0.1,1.9-0.5,2.6c-1.1,2.3-2.9,4.2-4.6,6.1
				c-3.7,4.1-7.8,8-10.2,13.1c-2.4,5.2-3.1,10.9-2.1,16.5c0.9,5.1,3.6,10.5,8.2,13.3c5.1,3.1,11,1.1,16.1-1
				c9.9-4.2,18.8-11.7,19.9-23c0.6-6.1-1.9-11.9-6.6-15.8c-5.3-4.4-11.6-7.7-17.8-10.7c-1.2-0.6-2.7-0.3-3.4,0.9
				c-0.6,1.1-0.3,2.8,0.9,3.4c5.2,2.6,10.5,5.4,15.2,8.7c3.9,2.7,6.6,6.3,6.7,11.2c0.3,10.1-8,16.9-16.5,20.6
				c-4.1,1.8-9.4,4-13.2,0.5c-3.4-3.1-4.9-8.1-5-12.7c-0.1-5.1,1.6-9.9,4.7-14c3.1-4.1,6.9-7.5,10.1-11.5c1.7-2.3,3.4-5,3.2-7.9
				c-0.2-3.5-2.8-5.3-5.8-6.4c-6.2-2.4-13-3.5-19.6-3.4C-119.3,350.8-119.3,355.8-116.1,355.8L-116.1,355.8z"/>
		</g>
	</g>
	<g>
		<g>
			<path d="M-84.6,417c0.5,1.4,0.9,2.7,1.4,4.1c0.2,0.6,0.6,1.2,1.1,1.5c0.5,0.3,1.3,0.4,1.9,0.3c0.6-0.2,1.2-0.6,1.5-1.1
				c0.3-0.6,0.5-1.3,0.3-1.9c-0.5-1.4-0.9-2.7-1.4-4.1c-0.2-0.6-0.6-1.2-1.1-1.5c-0.5-0.3-1.3-0.4-1.9-0.3c-0.6,0.2-1.2,0.6-1.5,1.1
				C-84.6,415.6-84.8,416.3-84.6,417L-84.6,417z"/>
		</g>
	</g>
	<g>
		<g>
			<path d="M-85.3,428.2c6-0.9,11.9-2.2,17.7-3.7c3.1-0.8,1.8-5.7-1.3-4.8c-5.8,1.6-11.7,2.8-17.7,3.7c-1.3,0.2-2.1,1.9-1.7,3.1
				C-88,427.9-86.7,428.4-85.3,428.2L-85.3,428.2z"/>
		</g>
	</g>
	<g>
		<g>
			<path d="M-57.8,371.9c0.2,13.2,2.1,26.3,5.6,39c0.8,3.1,5.7,1.8,4.8-1.3c-3.3-12.3-5.1-24.9-5.4-37.7
				C-52.8,368.7-57.8,368.7-57.8,371.9L-57.8,371.9z"/>
		</g>
	</g>
	<g>
		<g>
			<path d="M-53.2,394.9c2.9-0.4,5.9-0.9,8.8-1.3c0.6-0.1,1.2-0.7,1.5-1.1c0.3-0.5,0.4-1.3,0.3-1.9c-0.2-0.6-0.6-1.2-1.1-1.5
				c-0.6-0.3-1.2-0.4-1.9-0.3c-2.9,0.4-5.9,0.9-8.8,1.3c-0.6,0.1-1.2,0.7-1.5,1.1c-0.3,0.5-0.4,1.3-0.3,1.9c0.2,0.6,0.6,1.2,1.1,1.5
				C-54.5,395-53.9,395-53.2,394.9L-53.2,394.9z"/>
		</g>
	</g>
	<g>
		<g>
			<path d="M-62.1,416.9c1.3,3.3,2.7,6.6,4.3,9.7c0.8,1.5,1.6,3,2.4,4.5c0.8,1.4,1.6,3.1,3.1,3.9c3.2,1.8,6.9-1.3,9.5-3
				c3.1-1.9,6-4.1,8.8-6.4c1.1-0.8,0.9-2.7,0-3.5c-1-1-2.5-0.9-3.5,0c-2.2,1.8-4.5,3.4-6.9,5c-1.2,0.8-2.4,1.5-3.6,2.2
				c-0.6,0.4-1.2,0.8-1.9,1.1c-1,0.4,0.1,0,0,0.3c0.1-0.3-0.8-1.3-0.9-1.5c-0.4-0.6-0.7-1.3-1.1-1.9c-0.7-1.2-1.3-2.5-2-3.7
				c-1.3-2.6-2.5-5.2-3.5-8c-0.5-1.3-1.7-2.1-3.1-1.7C-61.6,414.2-62.6,415.7-62.1,416.9L-62.1,416.9z"/>
		</g>
	</g>
	<g>
		<g>
			<path d="M-80.4,425.8c3.2,0,3.2-5,0-5C-83.7,420.8-83.7,425.8-80.4,425.8L-80.4,425.8z"/>
		</g>
	</g>
	<g>
		<g>
			<path d="M-82.6,422.2c0,0.2,0,0.5,0,0.7c0,0.3,0.1,0.7,0.2,1c0.1,0.3,0.3,0.6,0.5,0.8c0.2,0.2,0.5,0.4,0.8,0.5
				c0.3,0.2,0.6,0.2,1,0.2c0.2,0,0.4-0.1,0.7-0.1c0.4-0.1,0.8-0.3,1.1-0.6c0.1-0.2,0.3-0.3,0.4-0.5c0.2-0.4,0.3-0.8,0.3-1.3
				c0-0.2,0-0.5,0-0.7c0-0.3-0.1-0.7-0.2-1c-0.1-0.3-0.3-0.6-0.5-0.8c-0.2-0.2-0.5-0.4-0.8-0.5c-0.3-0.2-0.6-0.2-1-0.2
				c-0.2,0-0.4,0.1-0.7,0.1c-0.4,0.1-0.8,0.3-1.1,0.6c-0.1,0.2-0.3,0.3-0.4,0.5C-82.4,421.3-82.6,421.8-82.6,422.2L-82.6,422.2z"/>
		</g>
	</g>
	<g>
		<g>
			<path d="M-100.3,386.5c2.4,0,2.4-3.8,0-3.8C-102.7,382.8-102.7,386.5-100.3,386.5L-100.3,386.5z"/>
		</g>
	</g>
	<g>
		<g>
			<path d="M-88.8,385c2.4,0,2.4-3.8,0-3.8C-91.2,381.3-91.2,385-88.8,385L-88.8,385z"/>
		</g>
	</g>
	<g>
		<g>
			<path d="M-101.1,394.2c1.8,2.9,5.2,5,8.7,5c2,0,3.6-1,4.7-2.6c0.8-1.2,1.2-2.5,1.9-3.7c0.5-0.8,0.2-2.1-0.7-2.6
				c-0.9-0.5-2-0.2-2.6,0.7c-0.6,1-1,2.1-1.6,3.1c-0.1,0.3-0.3,0.5-0.5,0.7c-0.1,0.2,0.2-0.2,0,0c-0.1,0.1-0.2,0.2-0.3,0.3
				c0.3-0.3-0.4,0.2-0.1,0.1c-0.2,0.1-0.4,0.1-0.6,0.2c0.2,0-0.2,0-0.2,0c-0.2,0-0.3,0-0.5,0c-0.1,0-0.1,0-0.2,0c0.2,0,0.2,0,0.1,0
				c-0.3-0.1-0.6-0.1-1-0.2c-0.1,0-0.3-0.1-0.4-0.1c-0.1,0-0.4-0.1-0.1,0c-0.3-0.1-0.6-0.3-0.9-0.4c-1-0.6-1.8-1.3-2.4-2.2
				c-0.5-0.9-1.7-1.2-2.6-0.7C-101.2,392.1-101.6,393.3-101.1,394.2L-101.1,394.2z"/>
		</g>
	</g>
	<g>
		<g>
			<path d="M-30.2,381.7c-3.1,2.5-4.5,6.5-3.7,10.3c0.9,4.2,4.4,6.5,8.3,7.8c2.1,0.7,4.4,0.8,6.4-0.2c1.9-1,3.1-2.9,3.9-4.8
				c1.4-3.6,0.9-7.8-1.5-10.8c-2.5-3.1-6.9-4.6-10.8-3.5c-1.3,0.4-2.2,1.8-1.7,3.1c0.4,1.3,1.7,2.1,3.1,1.7c0.1,0,0.3-0.1,0.4-0.1
				c0,0,0.7-0.2,0.3-0.1c-0.3,0.1,0.1,0,0.2,0c0.2,0,0.3,0,0.5,0c0.3,0,0.5,0,0.8,0c-0.5,0-0.2,0-0.1,0c0.2,0,0.4,0.1,0.6,0.1
				c0.3,0.1,0.5,0.2,0.8,0.2c0.4,0.2,0,0,0,0c0.2,0.1,0.3,0.1,0.5,0.2c0.3,0.1,0.5,0.3,0.8,0.5c0.1,0.1,0.3,0.3,0,0
				c0.1,0.1,0.3,0.2,0.4,0.3c0.2,0.2,0.4,0.4,0.6,0.7c0.1,0.1,0.2,0.4,0,0c0.1,0.1,0.2,0.2,0.2,0.3c0.2,0.3,0.3,0.6,0.5,0.9
				c0.2,0.3-0.1-0.3,0,0c0,0.2,0.1,0.3,0.2,0.5c0.1,0.2,0.1,0.4,0.1,0.5c0,0.1,0.1,0.5,0.1,0.2c-0.1-0.4,0,0.3,0,0.3
				c0,0.1,0,0.3,0,0.4c0,0.3,0,0.6,0,0.9c0,0.5,0,0.1,0,0c0,0.2-0.1,0.4-0.1,0.7c-0.1,0.3-0.1,0.6-0.2,0.9c0,0-0.3,0.7-0.1,0.3
				c0.1-0.3-0.1,0.1-0.1,0.2c-0.1,0.3-0.3,0.6-0.5,0.9c-0.1,0.1-0.2,0.3-0.3,0.4c0.3-0.3-0.2,0.2-0.2,0.2c-0.1,0.1-0.2,0.2-0.3,0.3
				c0.1-0.1,0.3-0.2-0.1,0c-0.4,0.2-0.2,0.1-0.1,0c-0.2,0.1-0.3,0.1-0.5,0.1c-0.5,0.1-0.1,0,0,0c-0.2,0-0.4,0-0.6,0
				c-0.1,0-0.6-0.1-0.3,0c0.2,0-0.4-0.1-0.5-0.1c-0.7-0.2-1.3-0.4-2-0.7c-0.1,0-0.4-0.2-0.1,0c-0.1-0.1-0.3-0.1-0.4-0.2
				c-0.4-0.2-0.7-0.4-1.1-0.6c-0.1-0.1-0.3-0.2-0.4-0.3c0.3,0.2-0.1-0.1-0.2-0.1c-0.2-0.2-0.4-0.4-0.6-0.7c-0.3-0.3,0.3,0.5-0.1-0.1
				c-0.1-0.1-0.2-0.3-0.2-0.4c-0.1-0.1-0.1-0.3-0.2-0.4c-0.3-0.6,0.1,0.4-0.1-0.2c-0.1-0.4-0.2-0.7-0.3-1.1c0,0.1,0,0.5,0,0
				c0-0.2,0-0.4,0-0.7c0-0.1,0-0.3,0-0.4c0-0.5-0.1,0.3,0-0.2c0.1-0.4,0.2-0.7,0.3-1.1c0-0.1,0.2-0.5,0,0c0.1-0.2,0.2-0.3,0.2-0.5
				c0.2-0.3,0.4-0.6,0.6-1c0.2-0.3-0.4,0.4,0.1-0.1c0.1-0.1,0.2-0.3,0.4-0.4c0.3-0.3,0.6-0.6,0.9-0.8c1-0.8,0.9-2.7,0-3.5
				C-27.8,380.7-29.1,380.8-30.2,381.7L-30.2,381.7z"/>
		</g>
	</g>
	<g>
		<g>
			<path d="M-6.2,385.3c3.6,1,7.4,1.5,11.2,1.4c1.3,0,2.6-1.1,2.5-2.5c-0.1-1.3-1.1-2.5-2.5-2.5c-1.7,0-3.5,0.1-5.2-0.3
				c0.6,0.1,0,0-0.1,0c-0.2,0-0.4-0.1-0.6-0.1c-0.5-0.1-0.9-0.2-1.4-0.3c-0.9-0.2-1.7-0.4-2.5-0.6c-1.3-0.4-2.8,0.4-3.1,1.7
				C-8.3,383.6-7.6,385-6.2,385.3L-6.2,385.3z"/>
		</g>
	</g>
	<g>
		<g>
			<path d="M-6.4,396.5c3.4,0.8,7,1.1,10.5,0.7c0.7-0.1,1.3-0.2,1.8-0.7c0.4-0.4,0.8-1.1,0.7-1.8c-0.1-1.2-1.1-2.6-2.5-2.5
				c-1.6,0.2-3.2,0.2-4.8,0.1c-0.4,0-0.7-0.1-1.1-0.1c-0.2,0-0.4,0-0.6-0.1c-0.7-0.1,0.4,0.1-0.2,0c-0.8-0.1-1.6-0.3-2.4-0.5
				c-1.3-0.3-2.8,0.4-3.1,1.7C-8.5,394.7-7.8,396.2-6.4,396.5L-6.4,396.5z"/>
		</g>
	</g>
	<g>
		<g>
			<path d="M5.6,379c-2.2,6.6-3.1,13.7-2.8,20.7c0.1,1.3,1.1,2.5,2.5,2.5c1.3,0,2.6-1.1,2.5-2.5c-0.3-6.6,0.6-13.1,2.6-19.4
				c0.4-1.3-0.5-2.7-1.7-3.1C7.3,376.9,6,377.7,5.6,379L5.6,379z"/>
		</g>
	</g>
	<g>
		<g>
			<path d="M-10.6,409.5c-3.1,3.1-4.9,7.8-3.3,12.1c0.8,2.1,2.3,4,4.3,5c2.1,1,4.3,1.3,6.6,1.4c1.4,0.1,2.7,0,4-0.6
				c0.9-0.4,1.8-1,2.6-1.5c1.8-1.3,3.4-2.8,4.3-4.9c1.9-4.4,0.5-9.4-3.3-12.3c-2.1-1.6-4.6-2.3-7.2-2.4c-2.5-0.1-5.3,0.1-7.2,2
				c-1,0.9-0.9,2.6,0,3.5c1,1,2.6,0.9,3.5,0c0.4-0.4,0.2-0.2,0.1-0.1c0.2-0.2,0.3-0.2,0.1-0.1c0.3-0.1,0.7-0.2,1-0.3
				c-0.1,0-0.4,0,0.1,0c0.2,0,0.3,0,0.5,0c0.5,0,0.9,0,1.4,0c1.5,0,3,0.3,4,1c0.6,0.4,0.8,0.5,1.3,1.1c0.1,0.1,0.2,0.2,0.3,0.3
				c0.3,0.3-0.2-0.2,0.1,0.1c0.2,0.3,0.4,0.7,0.6,1c0.2,0.4,0.1,0.3,0.1,0.1c0.1,0.2,0.1,0.4,0.2,0.5c0,0.1,0.2,1,0.2,0.7
				c0.1,0.8,0,1.5-0.1,2c-0.3,1.3-1,2.2-2.2,3.1c-0.6,0.5-2.2,1.7-3.2,1.8c-0.8,0.1-1.7-0.1-2.5-0.1c-0.8-0.1-1.2-0.1-2-0.4
				c-0.8-0.2-1.1-0.3-1.7-0.8c-0.1,0-0.2-0.1-0.4-0.4c-0.4-0.4-0.3-0.3-0.6-0.8c-0.2-0.4-0.2-0.3-0.3-0.7c-0.1-0.4-0.2-0.8-0.3-1.2
				c0.1,0.4,0-0.1,0-0.1c0-0.2,0-0.4,0-0.7c0-0.2,0-0.4,0-0.5c0-0.2,0-0.2,0,0c0-0.1,0-0.2,0.1-0.3c0.4-1.6,1.1-2.8,2.3-4.1
				C-4.8,410.8-8.4,407.3-10.6,409.5L-10.6,409.5z"/>
		</g>
	</g>
	<g>
		<g>
			<path d="M59.8,400c0.1,2.3,0.5,4.6,1.3,6.8c0.8,2.1,1.8,4.6,3.5,6c2,1.6,5.1,1.5,7.5,1.3c2.4-0.2,4.8-0.7,7.1-1.6
				c1.3-0.5,2.1-1.7,1.7-3.1c-0.3-1.2-1.8-2.2-3.1-1.7c-0.9,0.4-1.9,0.7-2.9,0.9c-0.8,0.2-1.8,0.4-2.4,0.5c-0.9,0.1-1.9,0.1-2.9,0.1
				c-0.5,0-1,0-1.5-0.1c-0.1,0-0.2,0-0.3,0c0.1,0,0.1,0,0,0c-0.1,0-0.2-0.1,0,0.1c-0.4-0.3-0.8-1.1-1.2-1.8c-0.4-0.8-0.7-1.4-1-2.1
				c-0.3-0.9-0.6-1.8-0.7-2.7c-0.2-0.8-0.2-1.4-0.3-2.4c0-1.3-1.1-2.6-2.5-2.5C61,397.6,59.8,398.6,59.8,400L59.8,400z"/>
		</g>
	</g>
	<g>
		<g>
			<path d="M81.2,395.6c1.3,7.1,2,14.3,2.1,21.5c0.1,3.2,5.1,3.2,5,0c-0.1-7.7-0.9-15.3-2.3-22.8c-0.2-1.3-1.9-2.1-3.1-1.7
				C81.5,392.9,80.9,394.3,81.2,395.6L81.2,395.6z"/>
		</g>
	</g>
	<g>
		<g>
			<path d="M93.3,398.3c2.8,0.1,5.5,0.3,8.3,0.4c1.3,0.1,2.6-1.2,2.5-2.5c-0.1-1.4-1.1-2.4-2.5-2.5c-2.8-0.1-5.5-0.3-8.3-0.4
				c-1.3-0.1-2.6,1.2-2.5,2.5C90.9,397.2,91.9,398.2,93.3,398.3L93.3,398.3z"/>
		</g>
	</g>
	<g>
		<g>
			<path d="M90.8,395.9c0,2.2,0.2,4.4,0.5,6.5c0.3,2,0.6,4,1.2,5.9c0.4,1.3,1.3,2.4,2.7,2.8c1,0.3,2.1,0.2,3.1,0
				c2.1-0.3,4.2-0.7,6.2-1.4c1.2-0.4,2.2-1.7,1.7-3.1c-0.4-1.2-1.7-2.2-3.1-1.7c-1.6,0.5-3.3,1-5,1.2c-0.2,0-0.5,0.1-0.2,0
				c-0.2,0-0.5,0.1-0.7,0.1c-0.1,0-0.9,0.1-1,0c0.3,0.1,0.4,0.1,0.2,0c-0.2,0-0.1,0,0.2,0.1c0.2,0.1,0.3,0.3,0.5,0.5
				c0.2,0.2,0-0.1-0.1-0.3c-0.1-0.2-0.1-0.5-0.2-0.7c-0.2-0.8-0.4-1.7-0.5-2.5c-0.1-0.4-0.2-0.9-0.2-1.3c0-0.2-0.1-0.4-0.1-0.6
				c0-0.2,0-0.2,0,0.1c0-0.1,0-0.2,0-0.2c-0.2-1.8-0.3-3.6-0.4-5.4c0-1.3-1.1-2.6-2.5-2.5C91.9,393.5,90.8,394.5,90.8,395.9
				L90.8,395.9z"/>
		</g>
	</g>
	<g>
		<g>
			<path d="M110.9,394.2c0.9,7.5,1,15.1,0.3,22.6c-0.1,1.3,1.2,2.5,2.5,2.5c1.4,0,2.4-1.1,2.5-2.5c0.6-7.5,0.5-15.1-0.3-22.6
				c-0.2-1.3-1-2.5-2.5-2.5C112.1,391.7,110.7,392.9,110.9,394.2L110.9,394.2z"/>
		</g>
	</g>
	<g>
		<g>
			<path d="M114.3,405.2c2.6,0.1,5.3,0.3,7.9,0.4c1.3,0.1,2.6-1.2,2.5-2.5c-0.1-1.4-1.1-2.4-2.5-2.5c-2.6-0.1-5.3-0.3-7.9-0.4
				c-1.3-0.1-2.6,1.2-2.5,2.5C111.8,404.2,112.9,405.2,114.3,405.2L114.3,405.2z"/>
		</g>
	</g>
	<g>
		<g>
			<path d="M24.6,376.7c-0.1,1.8-0.1,3.6,0.1,5.3c0.1,0.7,0.2,1.3,0.7,1.8c0.4,0.4,1.1,0.8,1.8,0.7c0.6,0,1.3-0.2,1.8-0.7
				c0.4-0.5,0.8-1.1,0.7-1.8c-0.2-1.8-0.2-3.6-0.1-5.3c0-0.6-0.3-1.3-0.7-1.8c-0.4-0.4-1.1-0.8-1.8-0.7c-0.6,0-1.3,0.2-1.8,0.7
				C24.9,375.5,24.7,376,24.6,376.7L24.6,376.7z"/>
		</g>
	</g>
	<g>
		<g>
			<path d="M20.5,387.4c5.1-0.1,10.3-0.2,15.4-0.3c1.3,0,2.6-1.1,2.5-2.5c-0.1-1.3-1.1-2.5-2.5-2.5c-5.1,0.1-10.3,0.2-15.4,0.3
				c-1.3,0-2.6,1.1-2.5,2.5C18.1,386.2,19.1,387.4,20.5,387.4L20.5,387.4z"/>
		</g>
	</g>
	<g>
		<g>
			<path d="M23,392.8c-2.5,2.6-3.3,6.3-1.8,9.6c0.6,1.4,1.9,2.6,3.2,3.3c1.6,0.8,3.4,0.9,5.2,0.9c1.7-0.1,3.4-0.4,4.9-1.5
				c1.4-1,2.4-2.4,3-4.1c1.1-3.2-0.1-7.2-2.7-9.3c-1.8-1.4-3.9-1.6-6-1.6c-2.1,0-4,0.4-5.6,1.7c-1,0.8-0.9,2.7,0,3.5
				c1.1,1,2.4,0.9,3.5,0c-0.5,0.4,0.1-0.1,0.3-0.1c-0.6,0.1,0.1,0,0.3,0c0.1,0,0.3-0.1,0.4-0.1c-0.5,0-0.2,0-0.1,0
				c0.3,0,0.6,0,0.9,0c0.6,0,1.1,0,1.7,0c0.1,0,0.3,0,0.4,0c0.4,0-0.4-0.1,0,0c0.3,0.1,0.6,0.1,0.9,0.2c-0.7-0.3,0.5,0.4,0,0
				c0.2,0.2,0.4,0.4,0.6,0.6c0.1,0.1,0.2,0.4,0,0c0.1,0.1,0.2,0.2,0.2,0.3c0.1,0.1,0.1,0.2,0.2,0.3c0,0.1,0.3,0.6,0.1,0.2
				c-0.1-0.3,0,0.1,0.1,0.2c0,0.1,0.1,0.3,0.1,0.4c0,0.1,0.1,0.3,0.1,0.4c0,0.1,0.1,0.5,0,0.2c0-0.3,0,0.4,0,0.5c0,0.1,0,0.3,0,0.4
				c0,0.6,0.1-0.5,0,0.1c-0.1,0.2-0.1,0.5-0.2,0.7c-0.1,0.3,0.1,0.1,0-0.1c0,0.1-0.2,0.3-0.2,0.3c0,0-0.4,0.6-0.4,0.6
				c0,0,0.4-0.4,0.1-0.1c-0.1,0.1-0.2,0.2-0.3,0.3c-0.1,0.1-0.2,0.2-0.3,0.2c-0.2,0.2,0.1-0.1,0.2-0.1c0,0-0.6,0.3-0.6,0.4
				c-0.4,0.3,0.1-0.1,0.1,0c0,0-0.3,0.1-0.4,0.1c-0.1,0-0.3,0.1-0.4,0.1c-0.1,0-0.7,0.1-0.2,0c-0.6,0-1.2,0.1-1.8,0
				c-0.3,0-0.5,0-0.7,0c-0.1,0-0.5-0.1-0.2,0c0.4,0.1-0.2-0.1-0.3-0.1c-0.1,0-0.3-0.1-0.4-0.1c-0.5-0.2,0.1,0,0.1,0
				c0-0.1-0.6-0.2-0.6-0.4c0,0.1,0.3,0.3,0.1,0.1c-0.1-0.1-0.2-0.2-0.3-0.2c-0.1-0.1-0.2-0.2-0.2-0.3c-0.4-0.4,0.3,0.4,0-0.1
				c-0.1-0.2-0.2-0.4-0.3-0.6c-0.2-0.4,0.1,0.1,0,0.1c0,0-0.1-0.5-0.2-0.5c0-0.1,0-0.3-0.1-0.3c0.1,0.1,0,0.5,0,0
				c0-0.3-0.1-0.6,0-0.9c-0.2,0.5,0,0.2,0,0.1c0-0.2,0.1-0.4,0.1-0.6c0-0.1,0.1-0.2,0.1-0.3c0.1-0.3-0.2,0.4,0,0
				c0.2-0.3,0.3-0.6,0.5-0.8c0,0.1-0.3,0.4,0,0c0.1-0.1,0.3-0.3,0.4-0.4c0.9-0.9,1-2.6,0-3.5C25.5,391.9,24,391.8,23,392.8L23,392.8
				z"/>
		</g>
	</g>
	<g>
		<g>
			<path d="M44.1,384.1c-0.6,5.9,0.3,12,2.6,17.5c0.5,1.2,1.7,2.1,3.1,1.7c1.2-0.3,2.3-1.8,1.7-3.1c-2.2-5.2-3-10.6-2.5-16.2
				c0.1-1.3-1.2-2.5-2.5-2.5C45.2,381.6,44.3,382.7,44.1,384.1L44.1,384.1z"/>
		</g>
	</g>
	<g>
		<g>
			<path d="M48.3,395.3c0.6-0.1,1.2-0.3,1.8-0.3c-0.2,0-0.4,0.1-0.7,0.1c1.5-0.2,2.9-0.2,4.4,0c-0.2,0-0.4-0.1-0.7-0.1
				c0.1,0,0.2,0,0.2,0c0.7,0.1,1.3,0.1,1.9-0.3c0.5-0.3,1-0.9,1.1-1.5c0.1-0.6,0.1-1.4-0.3-1.9c-0.3-0.5-0.9-1.1-1.5-1.1
				c-1.3-0.2-2.6-0.3-3.9-0.2c-1.3,0.1-2.6,0.3-3.9,0.6c-1.3,0.3-2.2,1.8-1.7,3.1C45.7,394.9,46.9,395.7,48.3,395.3L48.3,395.3z"/>
		</g>
	</g>
	<g>
		<g>
			<path d="M36.4,409.8c0.2,2.7,0.6,5.5,1.4,8.1c0.4,1.3,0.8,2.6,1.4,3.8c0.8,1.6,2.4,2.1,4.1,2.1c2.7,0,5.4-0.7,8-1.5
				c1.6-0.5,3.1-1.2,3.6-3c0.3-1.2,0.1-2.6-0.1-3.9c-0.4-3.1-1.1-6.2-2.1-9.1c-0.4-1.2-1.7-2.2-3.1-1.7c-1.2,0.4-2.2,1.7-1.7,3.1
				c0.9,2.7,1.5,5.4,1.9,8.2c0-0.3,0.1,0.5,0.1,0.6c0,0.3,0.1,0.6,0.1,0.9c0,0.1,0,0.9,0,0.9c-0.2-0.1,0.5-1.1,0.8-1.1
				c-0.2,0-0.8,0.2-1,0.3c-0.3,0.1-0.5,0.2-0.8,0.2c-0.7,0.2-1.4,0.4-2.1,0.6c-0.7,0.2-1.4,0.3-2.1,0.4c0.4-0.1-0.4,0-0.4,0
				c-0.4,0-0.7,0.1-1.1,0.1c-0.2,0-0.4,0-0.5,0c-0.3,0-0.3,0,0,0c0.3,0.1,0.6,0.3,0.7,0.6c-0.1-0.3-0.1-0.2,0,0
				c-0.3-0.6-0.4-1.2-0.6-1.8c-0.9-2.7-1.4-5.3-1.6-7.8c-0.1-1.3-1.1-2.6-2.5-2.5C37.6,407.3,36.3,408.4,36.4,409.8L36.4,409.8z"/>
		</g>
	</g>
	<g>
		<g>
			<path d="M41.3,416.9c2.8-0.1,5.5-0.5,8.2-1.3c1.2-0.4,2.2-1.8,1.7-3.1c-0.4-1.3-1.7-2.2-3.1-1.7c-1.5,0.5-3,0.8-4.5,1
				c0.2,0,0.4-0.1,0.7-0.1c-1,0.1-2,0.2-3,0.2c-1.3,0-2.6,1.1-2.5,2.5C38.8,415.8,39.9,417,41.3,416.9L41.3,416.9z"/>
		</g>
	</g>
</g>
<g>
	<g>
		<path d="M303.2,80.8c-1,17.7-0.3,35.5,2.3,53c0.7,5,1.6,9.9,2.6,14.8c0.3,1.3,1.8,2.1,3.1,1.7c1.4-0.4,2-1.7,1.7-3.1
			c-3.5-17-5.2-34.3-5.2-51.7c0-4.9,0.2-9.9,0.5-14.8C308.4,77.6,303.4,77.6,303.2,80.8L303.2,80.8z"/>
	</g>
</g>
<g>
	<g>
		<path d="M305.9,115.6c16.9-0.5,33.8-0.6,50.7-0.3c3.2,0.1,3.2-4.9,0-5c-16.9-0.3-33.8-0.2-50.7,0.3
			C302.7,110.7,302.7,115.7,305.9,115.6L305.9,115.6z"/>
	</g>
</g>
<g>
	<g>
		<path d="M355.6,81.9c0,17.7,0,35.4,0,53.1c0,5.1,0,10.1,0,15.2c0,3.2,5,3.2,5,0c0-17.7,0-35.4,0-53.1c0-5.1,0-10.1,0-15.2
			C360.6,78.6,355.6,78.6,355.6,81.9L355.6,81.9z"/>
	</g>
</g>
<g>
	<g>
		<path d="M524.9,92.3c-2,8.1-1.6,18.2,5.8,23.5c3.7,2.7,8.6,3.1,12.9,2c4.5-1.2,8.2-4.1,10.6-8c2.8-4.4,3.9-9.9,3.4-15.1
			c-0.1-1.2-0.9-2.3-2.2-2.5c-1.2-0.1-2.5,0.6-2.7,1.8c-4,19.4-7,39-9,58.7c-0.1,1.3,1.2,2.5,2.5,2.5c1.5,0,2.4-1.2,2.5-2.5
			c1.9-19.3,4.9-38.4,8.8-57.4c-1.6-0.2-3.3-0.4-4.9-0.7c0.5,6.9-1.9,15-8.9,17.7c-3,1.2-6.5,1.3-9.4-0.2c-2.8-1.5-4.4-4.4-5.1-7.5
			c-0.8-3.7-0.5-7.6,0.4-11.2C530.5,90.5,525.7,89.1,524.9,92.3L524.9,92.3z"/>
	</g>
</g>
<g>
	<g>
		<path d="M563.9,122.3c0.2,3.9-0.4,7.8,0.5,11.7c0.8,3.6,3.1,6.6,6.4,8.2c3.4,1.6,7.8,2.4,11.4,1.1c3.2-1.1,5.7-3.7,7.1-6.8
			c1.8-4.2,1.7-8.7,1.5-13.2c-0.2-3.2-5-3.2-5,0c-0.1,6.8,2.6,13.4,7.2,18.3c2.2,2.3,5.7-1.2,3.5-3.5c-3.8-4-5.8-9.3-5.8-14.8
			c-1.7,0-3.3,0-5,0c0.2,3.7,0.6,7.9-1.1,11.3c-1.5,3.1-4.1,4.6-7.6,4.2c-3.1-0.4-6.4-1.7-7.5-4.8c-1.3-3.7-0.4-7.8-0.7-11.7
			C568.7,119.1,563.7,119.1,563.9,122.3L563.9,122.3z"/>
	</g>
</g>
<g>
	<g>
		<path d="M600.4,123.3c2.1,5.3,4.2,10.6,6.3,15.9c1.2,3,5.4,1.9,4.8-1.3c-0.3-2-0.3-4.2,0.1-6.2c0.4-2,1.1-4.3,2.4-5.9
			c0.9-1-0.3,0.1-0.2-0.3c0-0.1,0.7,0.5,0.7,0.5c0.7,0.6,1.3,1.3,1.7,2.1c0.9,1.6,1.3,3.4,1.1,5.3c-0.2,2.9,4.1,3.2,4.9,0.7
			c0.7-2.3,1.6-4.5,2.7-6.6c0.5-1.1,1.1-2.1,1.7-3.1c0.6-1-0.2-0.2-0.2-0.2c0,0,0.8,0.4,0.8,0.4c3.8,2.8,2.8,8.7,2.2,12.7
			c-0.2,1.3,1.3,2.5,2.5,2.5c1.5,0,2.3-1.2,2.5-2.5c0.8-6,1-14.2-5.4-17.4c-1.5-0.8-3.4-1-4.9-0.1c-1.4,0.8-2.1,2.5-2.8,3.9
			c-1.6,2.9-2.9,6-3.9,9.2c1.6,0.2,3.3,0.4,4.9,0.7c0.2-3-0.6-6.1-2.3-8.6c-1.8-2.6-4.9-5.6-8.3-3.7c-2.6,1.5-4.1,5.3-4.8,8.1
			c-0.9,3.3-1,6.7-0.4,10c1.6-0.4,3.2-0.9,4.8-1.3c-2.1-5.3-4.2-10.6-6.3-15.9c-0.5-1.3-1.7-2.1-3.1-1.7
			C600.9,120.5,599.9,122,600.4,123.3L600.4,123.3z"/>
	</g>
</g>
<g>
	<g>
		<path d="M645.7,113c3.2,0,3.2-5,0-5C642.5,108,642.5,113,645.7,113L645.7,113z"/>
	</g>
</g>
<g>
	<g>
		<path d="M643.2,121.5c-0.1,5.3,0.1,10.6,0.8,15.8c0.2,1.3,1,2.6,2.5,2.5c1.2-0.1,2.7-1.1,2.5-2.5c-0.7-5.2-1-10.5-0.8-15.8
			c0-1.3-1.2-2.6-2.5-2.5C644.3,119.1,643.3,120.1,643.2,121.5L643.2,121.5z"/>
	</g>
</g>
<g>
	<g>
		<path d="M655.6-58c-5.6-0.5-11.6,0.7-16.2,3.9c-4.6,3.3-7.6,8.4-8,14.1c-0.8,12,11.9,19,22.6,17.9c3.4-0.4,6.8-1.5,9.3-4
			c2.2-2.3,3.7-5.5,3.3-8.8c-0.2-1.3-1-2.5-2.5-2.5c-1.2,0-2.7,1.2-2.5,2.5c0.6,4.4-3.4,7.3-7.4,7.8c-4.1,0.5-8.7-0.4-12.2-2.6
			c-3.4-2.1-5.6-5.5-5.5-9.6c0.1-4,2.1-7.9,5.3-10.3c4-3,9.1-3.9,13.9-3.4c1.3,0.1,2.5-1.2,2.5-2.5C658.1-57,657-57.9,655.6-58
			L655.6-58z"/>
	</g>
</g>
<g>
	<g>
		<path d="M670.9-57c0.6,9.9,2.1,19.7,4.3,29.3c0.7,3.1,5.6,1.8,4.8-1.3c-2.2-9.2-3.6-18.5-4.2-28c-0.1-1.3-1.1-2.5-2.5-2.5
			C672.1-59.5,670.8-58.3,670.9-57L670.9-57z"/>
	</g>
</g>
<g>
	<g>
		<path d="M688.3-53c3.2,0,3.2-5,0-5C685.1-58,685.1-53,688.3-53L688.3-53z"/>
	</g>
</g>
<g>
	<g>
		<path d="M687.4-44.9c0.8,5.3,2.2,10.4,4,15.4c0.4,1.2,1.7,2.2,3.1,1.7c1.2-0.4,2.2-1.8,1.7-3.1c-1.8-5-3.2-10.2-4-15.4
			c-0.2-1.3-1.9-2.1-3.1-1.7C687.7-47.6,687.2-46.3,687.4-44.9L687.4-44.9z"/>
	</g>
</g>
<g>
	<g>
		<path d="M710-50.4c-1.5-0.7-3.1-0.9-4.7-0.4c-1.4,0.4-2.8,1.2-3.8,2.3c-2,2.2-3,5.3-3.4,8.2c-0.4,3,0.8,6,3.5,7.5
			c2.2,1.2,4.9,1.4,7.4,1.5c3.5,0.1,7.4-1.1,8.4-4.8c0.3-1.3-0.4-2.8-1.7-3.1c-1.3-0.3-2.7,0.4-3.1,1.7c-0.1,0.4,0.2-0.2,0,0.2
			c-0.1,0.1-0.1,0.2-0.2,0.3c-0.1,0.2,0-0.1,0.1-0.1c-0.1,0.1-0.5,0.4-0.1,0.2c-0.2,0.2-0.5,0.3-0.7,0.4c0.3-0.2,0,0-0.2,0.1
			c-0.2,0.1-0.5,0.1-0.8,0.2c0.4-0.1-0.3,0-0.4,0c-0.3,0-0.6,0-0.9,0c-0.9,0-1.9-0.1-2.8-0.2c-0.5,0,0,0,0.1,0c-0.1,0-0.2,0-0.3,0
			c-0.2,0-0.4-0.1-0.6-0.1c-0.4-0.1-0.8-0.2-1.2-0.3c-0.5-0.1,0.3,0.2-0.1,0c-0.2-0.1-0.3-0.2-0.5-0.3c-0.2-0.1-0.4-0.3-0.1,0
			c-0.1-0.1-0.3-0.3-0.5-0.4c-0.3-0.2,0.2,0.4,0,0.1c0-0.1-0.1-0.2-0.2-0.2c-0.1-0.1-0.2-0.6-0.1-0.2c-0.1-0.2-0.1-0.5-0.2-0.7
			c0.1,0.4,0-0.3,0-0.4c0-0.2,0-0.5,0-0.7c0-0.3,0,0,0,0.1c0-0.1,0-0.2,0.1-0.4c0.1-0.5,0.2-1,0.4-1.5c0.1-0.5,0.3-1,0.5-1.5
			c0.1-0.3,0,0,0,0.1c0-0.1,0.1-0.2,0.1-0.3c0.1-0.2,0.2-0.5,0.4-0.7c0.1-0.1,0.1-0.2,0.2-0.3c0,0,0.3-0.4,0.1-0.2
			c-0.2,0.2,0.1-0.1,0.1-0.1c0.1-0.1,0.2-0.2,0.3-0.3c0.1-0.1,0.2-0.1,0.2-0.2c0.2-0.3-0.3,0.2,0,0c0.2-0.1,0.4-0.3,0.7-0.4
			c0.1-0.1,0.4-0.2,0,0c0.1,0,0.3-0.1,0.4-0.1c0.1,0,0.2,0,0.3-0.1c0.3-0.1-0.4,0,0,0c0.2,0,0.5,0,0.7,0c-0.6,0,0.5,0.2,0,0
			c1.2,0.5,2.7,0.4,3.4-0.9C711.5-48.1,711.3-49.9,710-50.4L710-50.4z"/>
	</g>
</g>
<g>
	<g>
		<path d="M719.9-56.3c-0.8,7.8,1.6,15.4,4,22.7c0.4,1.3,1.7,2.1,3.1,1.7c1.3-0.3,2.2-1.8,1.7-3.1c-2.3-6.9-4.5-14-3.8-21.4
			c0.1-1.3-1.2-2.5-2.5-2.5C720.9-58.8,720-57.6,719.9-56.3L719.9-56.3z"/>
	</g>
</g>
<g>
	<g>
		<path d="M730.6-53.4c-1.5,1.1-2.8,2.3-3.9,3.8c-0.6,0.8-1.2,1.6-1.7,2.4c-0.4,0.7-0.9,1.5-1.4,2.1c0.1-0.2,0.3-0.3,0.4-0.5
			c-0.1,0.2-0.3,0.4-0.4,0.5c-0.9,1-1,2.6,0,3.5c1,0.9,2.6,1,3.5,0c1.4-1.5,2.3-3.4,3.5-5c-0.1,0.2-0.3,0.3-0.4,0.5
			c0.9-1.2,2-2.3,3.2-3.2c-0.2,0.1-0.3,0.3-0.5,0.4c0.1-0.1,0.1-0.1,0.2-0.2c0.5-0.4,1-0.8,1.1-1.5c0.2-0.6,0.1-1.4-0.3-1.9
			c-0.3-0.5-0.9-1-1.5-1.1C731.9-53.8,731.1-53.8,730.6-53.4L730.6-53.4z"/>
	</g>
</g>
<g>
	<g>
		<path d="M724.4-38.8c3.9,0.9,7.8,1.5,11.7,2c1.3,0.1,2.6-1.3,2.5-2.5c-0.1-1.5-1.1-2.3-2.5-2.5c-0.5-0.1-0.9-0.1-1.4-0.2
			c-0.2,0-0.5-0.1-0.7-0.1c0.4,0.1,0,0-0.2,0c-0.9-0.1-1.8-0.3-2.7-0.4c-1.8-0.3-3.6-0.7-5.4-1.1c-1.3-0.3-2.8,0.4-3.1,1.7
			C722.4-40.6,723-39.1,724.4-38.8L724.4-38.8z"/>
	</g>
</g>
<g>
	<g>
		<path d="M747.8-50.2c2.9,2.7,2.5,7.2,2.2,10.8c1.7,0,3.3,0,5,0c0-1.9,0.3-3.7,0.9-5.6c0.3-0.9,0.6-1.7,1.1-2.5
			c0.2-0.4,0.5-0.9,0.8-1.3c0.1-0.2,0.3-0.4,0.4-0.6c0.4-0.5,0.3-0.1,0.1-0.1c0.1,0-0.7,0.1-0.6,0c-0.1,0,0-0.5,0.1,0.1
			c0,0.2,0.4,0.5,0.4,0.7c0.3,0.6,0.3,1.3,0.4,2c0.1,2,0,3.9,0.3,5.9c0.4,2.5,4.2,2.2,4.8,0c0.5-1.9,1.2-3.7,2.1-5.4
			c0.4-0.7,0.8-1.5,1.3-2.2c0.2-0.2,0.5-0.6,0.6-0.6c-0.2,0.1,0.1-0.1,0.2-0.1c0,0-0.1,0.1-0.2,0.1c0.2,0.2,0.5,0.9,0.6,1.4
			c0.2,0.9,0.3,1.9,0.4,2.8c0.2,2.2,0.1,4.5-0.2,6.7c-0.2,1.3,1.3,2.5,2.5,2.5c1.5,0,2.3-1.2,2.5-2.5c0.4-3.1,0.3-6.1-0.1-9.2
			c-0.4-2.8-1.5-5.7-4.5-6.5c-3-0.8-5.3,1.5-6.7,3.8c-1.5,2.5-2.6,5.2-3.4,8c1.6,0,3.2,0,4.8,0c-0.4-2.4,0.1-4.9-0.5-7.3
			c-0.7-2.7-3.1-5.7-6.2-4.8c-2.8,0.8-4.2,4.1-5.3,6.5c-1.1,2.6-1.6,5.4-1.6,8.3c0,1.4,1.2,2.5,2.5,2.5c1.4,0,2.4-1.1,2.5-2.5
			c0.4-5,0.3-10.6-3.7-14.3C749-55.9,745.5-52.4,747.8-50.2L747.8-50.2z"/>
	</g>
</g>
<g>
	<g>
		<path d="M779.6-45.2c2,0.2,4.1,0.3,6.1,0.2c1.1-0.1,2.3-0.2,3.2-0.7c1.1-0.6,1.8-1.7,2.2-2.8c0.6-1.8,0.6-4.3-0.6-5.9
			c-1.4-1.8-3.6-2-5.7-2c-2.2-0.1-4.3,0.5-6,1.9c-1.4,1.2-2.4,3-2.9,4.8c-1,3.8-0.1,8,2.6,10.8c1.6,1.8,3.9,2.7,6.3,2.7
			c2.5,0,4.8-0.9,7-1.9c1.2-0.5,1.6-2.4,0.9-3.4c-0.8-1.3-2.1-1.4-3.4-0.9c0.3-0.1-0.1,0-0.1,0.1c-0.2,0.1-0.3,0.1-0.5,0.2
			c-0.3,0.1-0.7,0.3-1,0.4c-0.7,0.3-1.5,0.5-2.3,0.6c0.4-0.1-0.5,0-0.6,0c-0.2,0-0.3,0-0.5,0c-0.1,0-0.5-0.1-0.1,0
			c-0.3-0.1-0.7-0.1-1-0.3c0.1,0,0.3,0.2-0.1,0c-0.2-0.1-0.3-0.2-0.5-0.3c-0.3-0.2,0.2,0.2-0.1,0c-0.1-0.1-0.2-0.2-0.4-0.3
			c-0.1-0.1-0.2-0.2-0.3-0.3c0,0-0.4-0.4-0.2-0.2c0.2,0.2-0.1-0.2-0.2-0.2c-0.1-0.1-0.2-0.3-0.2-0.4c-0.2-0.3-0.3-0.6-0.5-0.9
			c0.2,0.4,0,0.1,0,0c0-0.1-0.1-0.3-0.1-0.4c-0.1-0.3-0.1-0.6-0.2-0.9c-0.1-0.5,0-0.1,0,0c0-0.1,0-0.3,0-0.5c0-0.4,0-0.8,0-1.1
			c0-0.2,0-0.3,0-0.5c0,0.1-0.1,0.5,0,0c0.1-0.3,0.1-0.6,0.2-0.9c0.1-0.3,0.2-0.6,0.3-0.9c0,0.1-0.2,0.4,0,0
			c0.1-0.2,0.2-0.3,0.3-0.5c0.1-0.2,0.3-0.5,0.4-0.7c-0.3,0.3,0,0,0,0c0.1-0.1,0.2-0.2,0.3-0.3c0.3-0.3,0.1-0.1,0,0
			c0.1-0.1,0.3-0.2,0.4-0.2c0.4-0.2,0.2-0.1,0.1,0c0.2-0.1,0.5-0.1,0.7-0.2c0.2,0,0.3-0.1,0.5-0.1c-0.1,0-0.4,0,0.1,0
			c0.3,0,0.7,0,1,0c0.3,0,0.7,0,1,0.1c0.2,0,0.3,0,0.5,0c0.5,0-0.2-0.1,0.1,0c0.1,0,0.3,0.1,0.4,0.1c0.4,0-0.3-0.2,0,0
			c0.3,0.1-0.1-0.1-0.2-0.1c-0.1-0.1-0.2-0.5-0.1-0.2c0.1,0.4,0-0.4,0,0c0,0.1,0,0.3,0,0.4c0,0.1,0,0.3,0,0.4c0,0.3,0,0.4,0,0.1
			c0,0.1,0,0.3-0.1,0.4c0,0.1-0.3,0.7,0,0.2c0,0.1-0.2,0.3-0.2,0.3c0-0.1,0.5-0.5,0.2-0.3c-0.3,0.2,0.3-0.2-0.1,0
			c-0.2,0.1,0.3,0-0.2,0c-0.5,0-0.9,0-1.4,0.1c-1.8,0-3.5-0.1-5.3-0.3c-1.3-0.2-2.6,1.3-2.5,2.5C777.2-46.2,778.2-45.4,779.6-45.2
			L779.6-45.2z"/>
	</g>
</g>
<g>
	<g>
		<path d="M612.7,7.7c2.2-0.6,4.8-1.2,6.5-2.7c1.5-1.3,2-3.4,2.5-5.3c1.1-4.2,2.1-8.4,2-12.8c0-3.9-0.3-7.8,0-11.7
			c1-15.1,6.6-29.8,15.5-42c9.4-13,22.4-22.6,37.4-28.2c8.7-3.2,17.7-5.2,26.8-6.6c9.7-1.5,19.5-2.4,29.2-2.7
			c9.6-0.3,19.3,0,28.9,1.1c4.8,0.5,9.7,1.3,14.4,2.2c4.1,0.8,8.3,1.9,12.2,3.5c7.4,3.2,12.9,8.8,16.1,16.2c3,6.9,4.1,14.6,4.7,22
			c0.4,4.5,0.9,9.1,0.4,13.6c-0.5,3.9-1.9,7.7-4,11c-4.2,6.6-10.5,11.6-17.1,15.7C773.5-9.4,757-2.3,740.1,2.5
			c-17,4.8-34.7,7.3-52.4,7.1c-9.5-0.1-18.9-1-28.3-2.4c-9.3-1.3-18.6-2.8-28-3c-4.6-0.1-9.1,0.1-13.6,0.7c-0.6,0.1-0.9,1.1-0.1,1
			c19.7-2.7,39.1,3,58.6,4.3c17.8,1.2,35.9-0.3,53.3-4.2c17.4-3.9,34.2-10.2,49.8-18.7c12.8-7,28.5-16.5,31-32.3
			c0.7-4.5,0.2-9.2-0.2-13.7c-0.3-3.8-0.7-7.6-1.4-11.4c-1.3-7.2-3.7-14.6-8.5-20.2c-5.4-6.3-13.1-9.4-21-11.2
			c-9.3-2.1-18.9-3.2-28.4-3.8c-19.2-1.1-38.9,0.4-57.7,4.4c-9,1.9-17.9,4.7-26.2,8.8c-6.7,3.4-13,7.8-18.5,13
			c-11,10.3-19.1,23.7-23.2,38.2c-2,7.3-3.1,14.8-3,22.4c0,2.2,0.2,4.4,0.2,6.5c-0.1,2.5-0.4,5.1-1,7.5c-0.4,1.7-0.9,3.4-1.3,5.1
			c-0.3,1-0.6,2-1.1,2.8c-1.3,1.9-4.3,2.4-6.3,3C612.3,6.8,612,7.9,612.7,7.7L612.7,7.7z"/>
	</g>
</g>
<g>
	<g>
		<path d="M588.4,24.9c8.6-2.5,15.7-9.1,19.3-17.2c4.3-9.7,3.1-20.4,4-30.8c1.5-17.4,7.8-34.5,17.6-49.1
			c9.7-14.3,23.1-25.9,39.1-32.5c9.8-4.1,20.3-6.4,30.8-8c10.8-1.6,21.8-2.4,32.7-2.5c11.2-0.1,22.3,0.6,33.4,2.3
			c5.5,0.9,11,2,16.5,3.3c4.5,1.1,9,2.4,13.2,4.4c4.2,2,7.9,4.6,11,8c2.6,2.9,4.7,6.6,6.1,10.2c3.3,8.4,4.3,17.4,4.8,26.3
			c0.5,9.5,1.4,19.6-3,28.3c-3.9,7.6-10.3,13.7-17.2,18.5c-8,5.6-16.8,10.3-25.6,14.5c-9.1,4.3-18.6,7.8-28.3,10.7
			c-19.4,5.6-39.6,8.3-59.8,7.6c-10.6-0.3-21.2-1.8-31.7-3.5c-11.3-1.8-22.6-3.8-34.1-4.3c-5.4-0.2-10.9-0.1-16.3,0.5
			c-1.6,0.2-2.9,1.2-2.9,2.9c0,1.5,1.4,3.1,2.9,2.9c23-2.6,45.7,4,68.4,6.4c20.7,2.1,41.7,0.8,61.9-3.6
			c20.5-4.5,40.3-12.2,58.5-22.8c8-4.6,15.8-9.8,22.1-16.7c6.7-7.3,10.8-16.1,11.4-26c0.3-5.2,0-10.4-0.3-15.5
			c-0.3-4.8-0.7-9.5-1.5-14.2c-1.5-9.1-4.4-18-10.2-25.3c-6.2-7.8-15.6-11.8-25-14.3c-11-3-22.3-4.8-33.6-5.8
			c-11.4-1-22.9-1-34.3-0.3c-11.1,0.7-22.2,2-33,4.4c-10.3,2.3-20.4,5.9-29.6,11.2c-7.6,4.4-14.5,10-20.6,16.3
			C622.6-75.4,613.6-59,609-41.4c-2.5,9.5-3.4,19.1-3.6,28.9C605.2-7.3,605-2,603.3,3c-1.3,3.9-3.6,7.5-6.6,10.3
			c-2.8,2.7-6.2,4.8-9.9,5.9C583.2,20.2,584.8,25.9,588.4,24.9L588.4,24.9z"/>
	</g>
</g>
</svg>
